<?xml version="1.0" encoding="UTF-8" standalone="no"?>
<svg
   xmlns:dc="http://purl.org/dc/elements/1.1/"
   xmlns:cc="http://creativecommons.org/ns#"
   xmlns:rdf="http://www.w3.org/1999/02/22-rdf-syntax-ns#"
   xmlns:svg="http://www.w3.org/2000/svg"
   xmlns="http://www.w3.org/2000/svg"
   xmlns:sodipodi="http://sodipodi.sourceforge.net/DTD/sodipodi-0.dtd"
   xmlns:inkscape="http://www.inkscape.org/namespaces/inkscape"
   width="1920mm"
   height="300mm"
   viewBox="0 0 7256.6929 1133.8583"
   version="1.1"
   id="svg947"
   sodipodi:docname="sky.svg"
   inkscape:version="1.0.1 (3bc2e813f5, 2020-09-07)">
  <style
     id="style2883" />
  <sodipodi:namedview
     pagecolor="#ffffff"
     bordercolor="#666666"
     borderopacity="1"
     objecttolerance="10"
     gridtolerance="10"
     guidetolerance="10"
     inkscape:pageopacity="0"
     inkscape:pageshadow="2"
     inkscape:window-width="1920"
     inkscape:window-height="1053"
     id="namedview947"
     showgrid="false"
     inkscape:zoom="0.18498643"
     inkscape:cx="1259.9043"
     inkscape:cy="680.23405"
     inkscape:window-x="0"
     inkscape:window-y="27"
     inkscape:window-maximized="1"
     inkscape:current-layer="layer1"
     inkscape:snap-nodes="true"
     inkscape:snap-page="true"
     fit-margin-top="0"
     fit-margin-left="0"
     fit-margin-right="0"
     fit-margin-bottom="0"
     inkscape:document-rotation="0" />
  <defs
     id="defs941" />
  <metadata
     id="metadata944">
    <rdf:RDF>
      <cc:Work
         rdf:about="">
        <dc:format>image/svg+xml</dc:format>
        <dc:type
           rdf:resource="http://purl.org/dc/dcmitype/StillImage" />
        <dc:title></dc:title>
      </cc:Work>
    </rdf:RDF>
  </metadata>
  <g
     id="layer1"
     class="floating"
     inkscape:groupmode="layer"
     transform="translate(0.1889765,1.518708)">
    <path
       style="fill:#f3f3f3;fill-opacity:1;stroke:#000000;stroke-width:0.377953;stroke-linecap:butt;stroke-linejoin:miter;stroke-miterlimit:4;stroke-dasharray:none;stroke-opacity:1"
       d="m 165.69495,425.74991 c -54.4964,5.64469 -157.3893,47.37229 -157.3893,47.37229 -46.305,20.70114 3.0617,169.42266 143.7809,87.41144 2.6044,61.09231 186.8508,45.50086 224.8006,11.58659 -18.1134,25.0244 -47.3051,46.0718 -49.7051,79.2137 4.0062,17.9947 24.0003,25.5565 39.6504,30.8465 25.6008,7.8192 51.6483,-39.9946 77.1603,-32.5452 0,0 -73.0851,95.62433 -11.4158,133.89013 129.3686,80.2734 100.8127,-25.7095 124.2133,-62.72433 7.0863,-11.2616 12.4476,-26.0238 24.1506,-32.7277 53.9444,18.8077 29.5856,-19.80044 88.1038,-23.44544 12.5603,-11.5196 2.9018,-30.6813 -8.3343,-39.2873 -99.9419,-70.38589 -172.877,-59.14937 -100.6414,-67.50186 31.283,-3.6172 53.0849,-26.68133 89.4574,-49.86431 30.6172,-24.10531 -197.7989,6.16539 -293.9989,-13.02662 -66.0489,-13.17681 -1.7106,-88.68337 -189.8325,-69.19789 z"
       id="cloud11"
       sodipodi:nodetypes="sccccccsccccscas"
       inkscape:label="cloud11" />
    <path
       style="fill:#f3f3f3;fill-opacity:1;stroke:#000000;stroke-width:0.377953;stroke-linecap:butt;stroke-linejoin:miter;stroke-miterlimit:4;stroke-dasharray:none;stroke-opacity:1"
       d="m 114.45588,489.81937 c -25.949305,-0.379 -28.512605,20.6801 -8.7289,30.733 -29.560605,14.4175 -16.002005,48.5685 43.8695,14.683 18.6204,29.9975 37.0194,21.9796 25.7315,-11.9448 10.3108,-51.0075 -17.7355,-29.4443 -35.7988,-22.024 -7.2624,-5.6385 -15.3768,-11.8006 -25.0733,-11.4472 z"
       id="cloud10"
       sodipodi:nodetypes="cccccc"
       inkscape:label="cloud10" />
    <path
       style="fill:#f3f3f3;fill-opacity:1;stroke:#000000;stroke-width:0.377953;stroke-linecap:butt;stroke-linejoin:miter;stroke-miterlimit:4;stroke-dasharray:none;stroke-opacity:1"
       d="m -28.96146,387.06062 c -39.6126,36.3986 -109.8355,101.60078 -81.957,151.71228 26.5816,47.7805 138.6088,-35.9705 138.6088,-35.9705 0,0 32.62,94.6838 67.7733,105.7406 111.615,35.10642 185.2805,-89.93892 113.1398,-123.7169 0,0 87.7303,32.6038 112.9134,20.6434 28.7018,-13.6312 16.7484,-67.40577 16.7484,-67.40577 0,0 12.7171,64.81337 39.0484,71.78017 37.487,9.9182 98.854,-61.32659 98.854,-61.32659 0,0 -18.1422,155.91519 25.9206,191.91309 22.4095,18.3075 83.6361,-113.1809 83.6361,-113.1809 0,0 116.0663,103.2308 138.0634,49.7093 22.5252,-54.8061 -22.1729,-128.32605 -59.789,-168.87542 -52.0669,-56.12709 -113.6428,-104.26254 -186.5211,-113.18669 -18.3254,-2.244 -45.8188,39.33617 -66.5644,24.26088 -26.5735,-19.31032 -46.0046,-15.85402 -53.1912,8.06723 -8.8725,29.53343 -28.528,-29.07734 -64.8543,-32.32811 -52.1859,-4.67001 -113.993,89.57807 -113.993,89.57807 0,0 -36.4832,-48.38262 -61.1917,-53.20542 -50.5501,-9.86716 -105.7089,18.17614 -146.6445,55.79128 z"
       id="cloud8"
       sodipodi:nodetypes="sscscscacscsssssscss"
       inkscape:label="cloud8" />
    <path
       style="fill:#f2f2f2;fill-opacity:1;stroke:#000000;stroke-width:0.377953;stroke-linecap:butt;stroke-linejoin:miter;stroke-miterlimit:4;stroke-dasharray:none;stroke-opacity:1"
       d="m 117.3531,519.08565 c -32.68886,14.68672 -80.1961,43.89917 -71.3959,80.38019 8.3521,34.62371 92.8492,27.71502 92.8492,27.71502 0,0 -53.3545,27.70052 -46.8347,50.95445 11.2259,40.03858 78.6164,41.60074 110.9539,20.38621 23.49945,-15.4165 27.87665,-85.99849 27.87665,-85.99849 1.0698,27.48244 2.0845,55.02125 48.7168,35.81073 0,0 -2.8345,41.45177 7.188,58.25573 15.1969,25.47977 42.9356,49.65863 72.5417,51.56723 16.0212,1.03282 33.5851,-9.29101 42.5134,-22.63373 13.415,-20.04826 7.0703,-72.02151 7.0703,-72.02151 0,0 19.138,85.63795 47.6978,80.93412 19.3293,-3.18355 16.8274,-62.86452 16.8274,-62.86452 0,0 95.9902,-9.48543 114.2696,-50.51667 8.1868,-18.37661 -5.1293,-41.82859 -14.6416,-59.38682 -11.9149,-21.99354 -28.1033,-43.05481 -50.446,-52.58194 -124.2388,-52.97654 -281.9876,-55.3518 -405.18655,0 z"
       id="cloud4"
       sodipodi:nodetypes="sscssccssccscssss"
       inkscape:label="cloud4" />
    <path
       style="fill:#f2f2f2;fill-opacity:1;stroke:#000000;stroke-width:0.377953;stroke-linecap:butt;stroke-linejoin:miter;stroke-miterlimit:4;stroke-dasharray:none;stroke-opacity:1"
       d="m 500.95005,919.13726 c 0,0 87.44701,-8.28045 83.30111,-38.60189 -5.2049,-38.06824 -113.75481,-18.61145 -113.75481,-18.61145 0,0 57.02551,-33.14274 48.98701,-56.8238 -6.2144,-18.3081 -24.81121,-23.59356 -56.78941,-11.79886 -29.2413,10.78525 -37.7997,22.13724 -41.6484,30.63271 -4.9397,-10.08664 2.1332,-8.74248 -11.3253,-22.54342 -17.3387,-17.77984 -7.37,-11.0499 -33.1858,-17.89487 -21.6872,-5.75032 -32.5963,42.97064 -32.5963,42.97064 0,0 -31.6167,-64.23225 -69.4937,-65.74371 -44.616,-1.78037 -92.9476,70.46507 -92.9476,70.46507 0,0 -43.6449,-48.15268 -69.9726,-41.59036 -15.9378,3.97256 -25.5863,42.11269 -25.5863,42.11269 0,0 -40.09519,-18.60588 -53.16819,-9.33784 -15.4983,10.98761 13.3658,46.2819 13.3658,46.2819 -18.0426,-14.78273 -107.4754,32.12962 -57.6414,32.42933 32.0157,0.19255 30.2305,18.05386 30.2305,18.05386 0,0 210.17228,36.44095 315.89941,31.76058 56.38852,-2.49622 166.32598,-31.76058 166.32598,-31.76058 z"
       id="cloud9"
       inkscape:label="cloud9"
       sodipodi:nodetypes="ccccscsscscscscscsc" />
    <path
       id="cloud2"
       style="fill:#f3f3f3;fill-opacity:1;stroke:#000000;stroke-width:0.377953;stroke-linecap:butt;stroke-linejoin:miter;stroke-miterlimit:4;stroke-dasharray:none;stroke-opacity:1"
       d="m 129.0221,161.04326 c -10.58333,18.35762 -49.798718,134.95078 3.70205,162.95243 42.56171,22.2763 107.68692,-60.83192 106.21589,-87.78835 0,0 22.26331,5.21305 59.41539,10.50479 30.91453,4.40331 48.2885,-34.78535 42.33334,-36.71523 0,0 42.33333,61.19206 126.99997,36.71523 32.4682,-9.38643 0,-85.66887 0,-85.66887 0,0 124.2978,-0.91059 84.6667,-61.192059 C 527.78774,62.482111 400.47912,62.809039 400.47912,62.809039 329.29034,17.042217 186.48644,-30.917864 44.35544,63.135965 c -62.266266,48.143565 -32.912613,91.476475 0,134.622525 42.333332,36.71524 66.14583,-6.11921 84.66666,-36.71523 z"
       inkscape:label="cloud2"
       sodipodi:nodetypes="cscscscscccc" />
    <path
       style="fill:#f3f3f3;fill-opacity:1;stroke:#000000;stroke-width:0.377953;stroke-linecap:butt;stroke-linejoin:miter;stroke-miterlimit:4;stroke-dasharray:none;stroke-opacity:1"
       d="m 45.037778,370.94079 c 0,0 -48.0143033,20.60628 -41.7843633,38.48857 6.08781,17.47435 55.3618573,4.09826 55.3618573,4.09826 0,0 44.341608,-12.41311 80.076778,-2.29508 58.89947,16.74141 71.71252,39.77844 40.18269,-26.75778 0,0 43.58942,12.63724 54.36392,-1.94744 16.64948,-22.53726 4.32278,-71.07238 -21.81011,-81.182 -25.97187,-10.04732 -70.33053,45.08876 -70.33053,45.08876 0,0 12.75725,-53.66155 -6.32936,-60.03716 -20.25867,-6.76711 -43.668018,46.89318 -43.668018,46.89318 0,0 -21.86071,-42.79767 -41.55597,-42.06086 -21.619934,0.8088 -44.0669173,27.91052 -42.0397073,49.45039 1.50584,16.00014 37.5328133,30.26116 37.5328133,30.26116 z"
       id="cloud1"
       inkscape:label="cloud1" />
    <path
       style="fill:#f2f2f2;fill-opacity:1;stroke:#000000;stroke-width:0.377953;stroke-linecap:butt;stroke-linejoin:miter;stroke-miterlimit:4;stroke-dasharray:none;stroke-opacity:1"
       d="m 142.29585,649.63523 c 0,0 -78.855796,72.91466 -74.709896,103.23611 5.2049,38.06823 105.163596,-46.02277 105.163596,-46.02277 0,0 -24.6214,13.7864 -16.5829,37.46746 6.2144,18.3081 -7.5929,42.9499 24.3853,31.1552 29.2413,-10.78525 37.7997,-22.13724 41.6484,-30.63271 4.9397,10.08664 15.2074,16.28813 32.3147,25.17293 14.2786,7.41574 28.1812,-14.96685 44.7927,-27.70528 0,0 31.6167,64.23225 69.4937,65.74371 44.616,1.78037 92.9476,-70.46507 92.9476,-70.46507 0,0 43.6449,48.15268 69.9726,41.59036 15.9378,-3.97256 25.5863,-42.11269 25.5863,-42.11269 0,0 40.0951,18.60588 53.1681,9.33784 15.4984,-10.98761 -13.3658,-46.2819 -13.3658,-46.2819 18.0427,14.78273 107.4755,-32.12962 57.6415,-32.42933 -32.0157,-0.19255 -30.2304,-18.05386 -30.2304,-18.05386 37.1234,-40.48081 -34.2175,-143.5746 -78.152,0 -20.747,-20.79035 -42.4514,-22.87006 -68.2276,0 9.2172,-69.71441 -54.3617,-27.07023 -34.149,0 -37.5366,44.03661 -77.5771,7.17981 -116.6991,0 50.1437,-122.76575 -84.8094,-147.61885 -137.0822,0 6.9091,-35.45512 -43.7135,-85.03052 -47.9156,0 z"
       id="cloud5"
       inkscape:label="cloud5"
       sodipodi:nodetypes="cscsscscscscscsccccccc" />
    <path
       style="fill:#f3f3f3;fill-opacity:1;stroke:#000000;stroke-width:0.377953;stroke-linecap:butt;stroke-linejoin:miter;stroke-miterlimit:4;stroke-dasharray:none;stroke-opacity:1"
       d="m 611.6797,320.83277 c -36.4309,32.3116 -95.7086,69.53655 -138.5351,46.36019 -27.5998,-14.93621 -2.4235,-68.12616 -23.8199,-91.08349 -8.0008,-8.58438 -21.7059,-12.74811 -33.3483,-11.27924 -38.7041,4.88312 -60.951,75.84182 -98.0756,63.85765 -26.2066,-8.45978 -29.8089,-77.04974 -29.8089,-77.04974 0,0 -66.7634,71.30051 -130.9814,18.52456 -12.8025,-10.52139 4.1156,-49.54279 4.1156,-49.54279 0,0 -47.0517,40.25022 -66.9053,-15.38067 -6.2956,-17.64069 34.7013,-44.19598 34.7013,-44.19598 0,0 -76.4993,50.43984 -106.5998,29.19645 C 6.641,179.10217 7.7095,148.7231 18.1197,132.45292 320.2393,-0.031818 767.5115,-7.9238299 693.4017,148.42469 c 0,0 -34.1415,130.20759 -81.722,172.40808 z"
       id="cloud7"
       inkscape:label="cloud7"
       sodipodi:nodetypes="ssssscscscscss" />
    <path
       style="fill:#f2f2f2;fill-opacity:1;stroke:#000000;stroke-width:0.377953;stroke-linecap:butt;stroke-linejoin:miter;stroke-miterlimit:4;stroke-dasharray:none;stroke-opacity:1"
       d="m 341.77145,700.52696 c -35.8338,-0.44249 -292.4014,22.89035 -283.6012,59.37138 8.3521,34.6237 92.8492,27.71501 92.8492,27.71501 0,0 -53.3545,27.70052 -46.8347,50.95445 11.2259,40.03858 78.6164,41.60074 110.9539,20.38621 23.4995,-15.4165 27.8767,-85.99848 27.8767,-85.99848 1.0698,27.48243 2.0845,55.02124 48.7168,35.81072 0,0 -2.8345,41.45177 7.188,58.25573 15.1969,25.47977 42.9356,49.65863 72.5417,51.56723 16.0212,1.03282 33.5851,-9.29101 42.5134,-22.63373 13.415,-20.04826 7.0703,-72.02151 7.0703,-72.02151 0,0 19.138,85.63795 47.6978,80.93412 19.3293,-3.18355 16.8274,-62.86452 16.8274,-62.86452 0,0 95.9902,-9.48543 114.2696,-50.51667 8.1868,-18.3766 -5.1293,-41.82858 -14.6416,-59.38682 -77.8356,-28.06678 -161.0121,-30.55543 -243.4273,-31.57312 z"
       id="cloud12"
       sodipodi:nodetypes="sscssccssccscscs"
       inkscape:label="cloud12" />
    <path
       style="fill:#f3f3f3;fill-opacity:1;stroke:#000000;stroke-width:0.377953;stroke-linecap:butt;stroke-linejoin:miter;stroke-miterlimit:4;stroke-dasharray:none;stroke-opacity:1"
       d="m 476.07144,231.21684 c 0,0 -86.5198,-2.2776 -19.5657,53.1883 -150.0018,-68.1175 -127.0093,25.7955 -45.084,63.0121 -45.0512,-2.5623 -111.3148,-29.7353 -96.8473,-89.274 37.4576,-154.151 -77.1943,-79.3727 -77.1943,-79.3727 0,0 36.1865,-100.17471 -43.4988,-130.90641 -29.7606,-11.4776 -73.9447,120.12451 -94.7239,109.61501 -40.26116,-20.3628 -10.6089,-74.61791 -43.46216,-30.0513 -27.3338,-18.8815 -1.9312,-88.71721 -35.7157,-94.70161 -29.2914,-5.248 -59.6983,2.0498 -86.2755,14.5104 -19.7594,9.5141 47.0696,77.58701 47.0696,77.58701 0,0 -133.3344,12.3384 -136.4121,42.4362 -2.1797,21.3159 15.9845,40.8345 36.8684,44.5457 25.5347,6.1346 107.6264,-36.8077 130.3968,-21.2958 42.4049,25.459 8.66,121.0864 -9.6559,167.1823 -9.7951,27.4328 -28.4019,50.53416 -42.7714,75.37436 1.614,9.6664 15.3304,7.6233 19.7665,0.979 9.7196,-8.8873 21.4505,-15.4156 31.315,-24.2703 46.481,-37.73276 84.86216,-86.55096 105.33486,-143.18396 7.5262,-19.6166 34.8134,-52.6188 34.8134,-52.6188 0,0 2.6108,45.1584 15.8015,46.5936 25.3533,2.7586 72.7093,-24.3586 72.7093,-24.3586 -20.1382,10.2047 -122.1128,136.6475 -76.1446,184.92726 46.3908,48.7239 173.4346,-75.77586 190.1709,-67.60266 30.5297,14.9091 -72.8757,41.9471 -56.3088,71.65806 23.1366,-33.83876 160.3379,-57.60176 197.1521,-73.51316 26.8005,-14.3961 24.6935,-21.1798 30.3096,-52.0403 l 13.9693,-76.7614 z"
       id="cloud13"
       sodipodi:nodetypes="cccscsscsccscssscsccscasssssc"
       inkscape:label="cloud13" />
    <path
       style="fill:#f3f3f3;fill-opacity:1;stroke:#000000;stroke-width:0.377953;stroke-linecap:butt;stroke-linejoin:miter;stroke-miterlimit:4;stroke-dasharray:none;stroke-opacity:1"
       d="m 215.96025,638.07588 c -35.4149,-4.6686 -201.2179,63.61024 -198.7111,88.9256 2.9496,29.78851 33.9523,58.70507 63.5,63.5 31.1459,5.0543 60.5208,0.1789 84.6666,-42.33333 0.8206,17.16098 -12.4368,91.589 32.1634,98.00933 18.5621,2.67208 47.9418,-29.44149 47.9418,-29.44149 0,0 12.8506,22.83834 35.6279,13.19692 7.2643,-3.0749 10.5833,-21.16666 10.5833,-21.16666 0,0 28.5812,89.68686 63.5,84.66666 71.6919,-10.307 15.7555,-111.79015 15.7555,-111.79015 0,0 40.4667,42.94381 59.5935,31.23265 15.3872,-9.42139 -0.5821,-54.12393 -0.5821,-54.12393 0,0 12.3992,25.55043 42.3334,10.58333 21.1667,-10.58333 -10.5834,-31.75 -10.5834,-31.75 0,0 33.2427,-8.53497 31.75,-21.16666 -6.2531,-52.91667 -84.6666,-52.91667 -84.6666,-52.91667 z"
       id="cloud0"
       sodipodi:nodetypes="ssscscscscacscscs"
       inkscape:label="cloud0" />
    <path
       style="fill:#f3f3f3;fill-opacity:1;stroke:#000000;stroke-width:0.377953;stroke-linecap:butt;stroke-linejoin:miter;stroke-miterlimit:4;stroke-dasharray:none;stroke-opacity:1"
       d="m 339.40934,79.57843 c -59.4772,-27.2782 -48.57,2.4445 -38.98,27.76991 5.4055,14.2751 -29.7325,6.9199 -44.7843,2.0158 -13.5046,-4.4 -25.0312,-13.53771 -37.5308,-19.34341 -53.6522,95.15071 72.7006,126.04951 93.5374,113.07091 27.1855,-17.6951 -6.7407,40.954 -72.7116,33.1157 -30.3149,-10.1626 -11.0612,55.2815 -11.0612,55.2815 -113.5167,-1.8822 -42.5206,85.6576 -19.5868,99.2799 -17.6369,17.8256 -17.0807,44.79631 9.5583,45.1358 21.6355,0.27573 50.0648,-3.73086 66.048,-17.6937 7.7411,-6.76253 12.0961,-18.05164 10.2015,-37.69558 170.8553,5.4155 187.9156,-72.83612 162.8425,-64.31472 -75.0549,-20.4099 -62.2422,-46.013 -7.31,-58.135 58.5794,-12.9268 -32.5417,-123.3116 -50.6328,-126.8632 34.3971,-25.2246 74.4562,-11.3355 59.1793,36.4538 -8.7106,27.2482 37.2303,45.8108 50.6778,54.6266 -18.9432,120.776 -6.0213,138.7209 82.0371,131.1484 96.8582,171.2055 199.2304,-73.7399 47.0149,-44.302 15.1771,-16.8817 43.7938,-16.5245 54.4021,-38.2848 7.2416,-22.2802 -13.7709,-44.5767 -35.3997,-46.512 -17.709,-3.5012 -28.8157,-32.1774 -46.7181,-34.2756 -4.5043,38.8802 -43.1944,22.3257 -61.4131,20.3868 -38.0967,-4.9357 56.0463,-81.3593 21.1913,-98.3011 -110.711,52.0133 -54.0494,-35.75161 -173.7693,-46.89111 -23.3754,-3.7958 47.1622,-54.2279 34.1126,-63.6164 -116.5625,-26.5588 -118.9787,53.7055 -90.9051,77.9435 z"
       id="cloud19"
       sodipodi:nodetypes="csscccccssccscsccccccccccc"
       inkscape:label="cloud5" />
    <path
       style="fill:#f2f2f2;fill-opacity:1;stroke:#000000;stroke-width:0.377953;stroke-linecap:butt;stroke-linejoin:miter;stroke-miterlimit:4;stroke-dasharray:none;stroke-opacity:1"
       d="m 345.97111,376.62317 c 0,0 -87.447,8.28045 -83.3011,38.60189 5.2049,38.06824 113.7548,18.61145 113.7548,18.61145 0,0 -57.0255,33.14274 -48.987,56.8238 6.2144,18.3081 24.8112,23.59356 56.7894,11.79886 29.2413,-10.78525 37.7997,-22.13724 41.6484,-30.63271 -0.9564,17.62823 13.1158,44.41485 67.0379,49.7831 44.616,1.78037 30.8133,-62.75897 30.8133,-62.75897 0,0 43.6449,48.15268 69.9726,41.59036 15.9378,-3.97256 25.5863,-42.11269 25.5863,-42.11269 0,0 40.0951,18.60588 53.1681,9.33784 15.4984,-10.98761 -13.3658,-46.2819 -13.3658,-46.2819 18.0427,14.78273 107.4755,-32.12962 57.6415,-32.42933 -32.0157,-0.19255 -30.2304,-18.05386 -30.2304,-18.05386 -24.584,13.64383 -36.089,-26.96874 -60.3839,1.01468 -19.3528,28.19204 -38.4402,26.42148 -59.2217,0.99515 -41.1578,-34.33565 -85.9312,-6.76166 -104.9893,5.64201 -38.0386,-83.44413 -109.0792,-11.28384 -115.9331,-1.92968 z"
       id="cloud6"
       inkscape:label="cloud6"
       sodipodi:nodetypes="cscsscccscscsccccc"
       sodipodi:insensitive="true" />
    <path
       style="fill:#f3f3f3;fill-opacity:1;stroke:#000000;stroke-width:0.377953;stroke-linecap:butt;stroke-linejoin:miter;stroke-miterlimit:4;stroke-dasharray:none;stroke-opacity:1"
       d="m 124.32635,806.1263 c -25.9493,-0.379 -28.5126,20.6801 -8.7289,30.733 -29.5606,14.4175 -53.7385,61.63272 6.133,27.74722 18.6204,29.9975 135.0784,-13.94613 123.7905,-47.87053 5.3458,-26.4458 -28.8126,-43.18598 -39.9893,-20.83566 -23.0979,46.18947 -48.0582,55.94201 -56.132,21.67317 -7.2624,-5.6385 -15.3768,-11.8006 -25.0733,-11.4472 z"
       id="cloud3"
       sodipodi:nodetypes="ccccscc"
       inkscape:label="cloud3" />
  </g>
</svg>
