<?xml version="1.0" encoding="UTF-8" standalone="no"?>
<svg
   xmlns:dc="http://purl.org/dc/elements/1.1/"
   xmlns:cc="http://creativecommons.org/ns#"
   xmlns:rdf="http://www.w3.org/1999/02/22-rdf-syntax-ns#"
   xmlns:svg="http://www.w3.org/2000/svg"
   xmlns="http://www.w3.org/2000/svg"
   xmlns:sodipodi="http://sodipodi.sourceforge.net/DTD/sodipodi-0.dtd"
   xmlns:inkscape="http://www.inkscape.org/namespaces/inkscape"
   id="70093593-85a2-447b-b81e-208691c845a3"
   data-name="Layer 1"
   width="1113.8"
   height="825.71"
   viewBox="0 0 1113.8 825.71"
   version="1.1"
   sodipodi:docname="undraw_startup_life_2du2.svg"
   inkscape:version="1.0.1 (3bc2e813f5, 2020-09-07)">
  <metadata
     id="metadata384">
    <rdf:RDF>
      <cc:Work
         rdf:about="">
        <dc:format>image/svg+xml</dc:format>
        <dc:type
           rdf:resource="http://purl.org/dc/dcmitype/StillImage" />
      </cc:Work>
    </rdf:RDF>
  </metadata>
  <sodipodi:namedview
     pagecolor="#ffffff"
     bordercolor="#666666"
     borderopacity="1"
     objecttolerance="10"
     gridtolerance="10"
     guidetolerance="10"
     inkscape:pageopacity="0"
     inkscape:pageshadow="2"
     inkscape:window-width="1920"
     inkscape:window-height="1053"
     id="namedview382"
     showgrid="false"
     inkscape:object-paths="true"
     inkscape:zoom="1.04395"
     inkscape:cx="389.08906"
     inkscape:cy="461.82032"
     inkscape:window-x="0"
     inkscape:window-y="-10"
     inkscape:window-maximized="1"
     inkscape:current-layer="70093593-85a2-447b-b81e-208691c845a3"
     inkscape:document-rotation="0"
     inkscape:object-nodes="false"
     inkscape:snap-nodes="true"
     inkscape:snap-others="true"
     inkscape:snap-intersection-paths="true" />
  <defs
     id="defs9">
    <linearGradient
       id="38c043cc-bff7-4144-86c9-76214eedfc2b"
       x1="879.53"
       y1="603.57"
       x2="879.53"
       y2="231.44"
       gradientTransform="matrix(-1, 0, 0, 1, 1191.18, 0)"
       gradientUnits="userSpaceOnUse">
      <stop
         offset="0"
         stop-color="gray"
         stop-opacity="0.25"
         id="stop2" />
      <stop
         offset="0.54"
         stop-color="gray"
         stop-opacity="0.12"
         id="stop4" />
      <stop
         offset="1"
         stop-color="gray"
         stop-opacity="0.1"
         id="stop6" />
    </linearGradient>
  </defs>
  <title
     id="title11">startup life</title>
  <path
     d="m 481.13327,34.18786 c -44.08,-17.92 -90.65,-32.8799995 -138.19,-30.9999995 -69.9,2.75 -136.94,44.7999995 -169.85,106.5299995 -27.89,52.3 -31.33,113.6 -43.34,171.64 -14.82,71.52 -43.159998,139.46 -73.439998,205.92 -16.26,35.7 -33.42,72.17 -36.08,111.31 -3.71,54.32 22.26,108.46 63,144.6 40.739998,36.14 94.819998,55.21 149.109998,59.37 28.89,2.21 59.08,0.16 84.75,-13.29 27.14,-14.22 46.94,-39.93 74.19,-53.95 23.99007,-27.09711 54.30989,-81.53041 82.66989,-79.83041 37.14259,2.22957 74.24195,76.7096 109.08011,89.78041 39.64,14.89 76.5,36.44 116.05,51.54 39.55,15.1 83.74,23.51 124.17,10.92 37.94,-11.83 68,-40.56 95,-69.66 44.4277,-47.77479 84.94783,-99.03949 121.17003,-153.3 24.41,-36.56 47.13,-75.14 57.93,-117.76 20.63,-81.48 -7.77,-173.41 -70.76,-229 -52.16003,-46.13 -122.20003,-66.13 -190.76003,-78.31 -62.52,-11.07 -134.81,-11.76 -192.36,-40.62 -54.88,-27.52 -104.82,-61.49 -162.34,-84.89 z"
     fill="#6c63ff"
     opacity="0.1"
     id="path13"
     sodipodi:nodetypes="ccccccscccccscccccccc"
     style="stroke:#afaeb7;stroke-opacity:1" />
  <polygon
     points="934.03 576.92 935.7 578.6 936.45 575.71 935.65 572.86 933.59 572.86 934.03 576.92"
     fill="#464a5f"
     id="polygon15" />
  <polygon
     points="934.03 576.92 935.7 578.6 936.45 575.71 935.65 572.86 933.59 572.86 934.03 576.92"
     opacity="0.1"
     id="polygon17" />
  <polygon
     points="934.03 576.92 935.65 578.65 934.03 580.55 932.29 579.9 931.86 579.06 934.03 576.92"
     fill="#9c9ca1"
     id="polygon19" />
  <polygon
     points="934.03 576.92 935.65 578.65 934.03 580.55 932.29 579.9 931.86 579.06 934.03 576.92"
     opacity="0.1"
     id="polygon21" />
  <path
     d="M669.31,310.28,486.43,493.16a17.58,17.58,0,0,0-.05,24.81L766.7,800.52a17.58,17.58,0,0,0,24.82.13L977.13,617.7Z"
     transform="translate(-43.1 -37.14)"
     fill="#9c9ca1"
     id="path23" />
  <path
     d="M669.31,310.28,486.43,493.16a17.58,17.58,0,0,0-.05,24.81L766.7,800.52a17.58,17.58,0,0,0,24.82.13L977.13,617.7Z"
     transform="translate(-43.1 -37.14)"
     opacity="0.1"
     id="path25" />
  <path
     d="M669.31,306.65,486.43,489.53a17.58,17.58,0,0,0-.05,24.81L766.7,796.88a17.58,17.58,0,0,0,24.82.14l185.61-183Z"
     transform="translate(-43.1 -37.14)"
     fill="#9c9ca1"
     id="path27" />
  <path
     d="m 688.51,178.1 -16.78,127.34 307.82,307.41 21.1529,-173.78413 c 0.811,-5.87179 -1.2069,-11.78073 -5.44001,-15.93 L 694.79,175.92 c -2.19358,-2.13111 -5.87867,-0.85189 -6.28,2.18 z"
     transform="translate(-43.1,-37.14)"
     fill="#464a5f"
     id="path29"
     sodipodi:nodetypes="ccccccc" />
  <path
     d="m 688.51,178.1 -16.78,127.34 295.41,287.85 12.41,19.56 c 0.811,-5.87179 22.9579,-185.67119 18.72481,-189.82046 L 694.79,175.92 c -2.19358,-2.13111 -5.87867,-0.85189 -6.28,2.18 z"
     transform="translate(-43.1,-37.14)"
     opacity="0.1"
     id="path31"
     sodipodi:nodetypes="ccccccc" />
  <path
     d="M 692.03203,135.11612 671.73,305.44 977.13,614.06 933.7529,423.5642 c 0.811,-5.87179 65.79225,5.08119 61.55913,0.93192 l -297,-291.56 c -2.19358,-2.13111 -5.87867,-0.85189 -6.28,2.18 z"
     fill="#464a5f"
     id="path33"
     sodipodi:nodetypes="ccccccc"
     transform="translate(-43.1,-37.14)" />
  <g
     opacity="0.1"
     id="g121">
    <path
       d="M670.13,365.17,659,376.4a3.53,3.53,0,0,0,0,5l11.28,11.57a3.54,3.54,0,0,0,5,.1l11.08-10.46a3.53,3.53,0,0,0,.18-4.95l-11.28-12.34A3.53,3.53,0,0,0,670.13,365.17Z"
       transform="translate(-43.1 -37.14)"
       id="path35" />
    <path
       d="M690.87,385.92l-11.09,11.22a3.53,3.53,0,0,0,0,4.95l11.28,11.57a3.53,3.53,0,0,0,5,.1l11.08-10.45a3.55,3.55,0,0,0,.18-5L696,386A3.53,3.53,0,0,0,690.87,385.92Z"
       transform="translate(-43.1 -37.14)"
       id="path37" />
    <path
       d="M712.65,407.69l-11.09,11.23a3.54,3.54,0,0,0,0,4.95l11.29,11.57a3.54,3.54,0,0,0,5,.1l11.08-10.46a3.53,3.53,0,0,0,.18-4.95l-11.28-12.34A3.53,3.53,0,0,0,712.65,407.69Z"
       transform="translate(-43.1 -37.14)"
       id="path39" />
    <path
       d="M734.67,429.72,723.59,441a3.54,3.54,0,0,0,0,4.95l11.29,11.57a3.54,3.54,0,0,0,5,.1l11.07-10.46a3.52,3.52,0,0,0,.19-4.95L739.8,429.82A3.54,3.54,0,0,0,734.67,429.72Z"
       transform="translate(-43.1 -37.14)"
       id="path41" />
    <path
       d="M756.7,451.75,745.62,463a3.54,3.54,0,0,0,0,5l11.29,11.57a3.54,3.54,0,0,0,5,.1l11.07-10.46a3.52,3.52,0,0,0,.19-4.95l-11.28-12.34A3.54,3.54,0,0,0,756.7,451.75Z"
       transform="translate(-43.1 -37.14)"
       id="path43" />
    <path
       d="M780.12,472.37l-13.77,13.95a1.66,1.66,0,0,0,0,2.32l13.87,14.21a1.66,1.66,0,0,0,2.32,0l13.77-13a1.65,1.65,0,0,0,.08-2.32l-13.86-15.16A1.66,1.66,0,0,0,780.12,472.37Z"
       transform="translate(-43.1 -37.14)"
       id="path45" />
    <path
       d="M802.15,494.4l-13.77,14a1.65,1.65,0,0,0,0,2.31l13.87,14.22a1.66,1.66,0,0,0,2.32,0l13.77-13a1.65,1.65,0,0,0,.08-2.32l-13.86-15.16A1.66,1.66,0,0,0,802.15,494.4Z"
       transform="translate(-43.1 -37.14)"
       id="path47" />
    <path
       d="M821.65,513.9l-13.77,14a1.65,1.65,0,0,0,0,2.31l13.87,14.22a1.66,1.66,0,0,0,2.32,0l13.77-13a1.65,1.65,0,0,0,.08-2.32L824.05,514A1.66,1.66,0,0,0,821.65,513.9Z"
       transform="translate(-43.1 -37.14)"
       id="path49" />
    <path
       d="M843.49,535.74l-13.77,13.94a1.65,1.65,0,0,0,0,2.32l13.87,14.21a1.65,1.65,0,0,0,2.32,0l13.77-13a1.66,1.66,0,0,0,.08-2.32l-13.86-15.16A1.66,1.66,0,0,0,843.49,535.74Z"
       transform="translate(-43.1 -37.14)"
       id="path51" />
    <path
       d="M864.64,556.89l-13.77,13.94a1.65,1.65,0,0,0,0,2.32l13.87,14.22a1.66,1.66,0,0,0,2.32,0l13.77-13a1.66,1.66,0,0,0,.08-2.32L867,556.94A1.66,1.66,0,0,0,864.64,556.89Z"
       transform="translate(-43.1 -37.14)"
       id="path53" />
    <path
       d="M885.79,578,872,592a1.65,1.65,0,0,0,0,2.31l13.87,14.22a1.66,1.66,0,0,0,2.32,0l13.77-13a1.65,1.65,0,0,0,.08-2.32l-13.86-15.16A1.66,1.66,0,0,0,885.79,578Z"
       transform="translate(-43.1 -37.14)"
       id="path55" />
    <path
       d="M906.94,599.19l-13.77,13.95a1.66,1.66,0,0,0,0,2.32L907,629.67a1.66,1.66,0,0,0,2.32.05l13.77-13a1.65,1.65,0,0,0,.08-2.32l-13.86-15.16A1.66,1.66,0,0,0,906.94,599.19Z"
       transform="translate(-43.1 -37.14)"
       id="path57" />
    <path
       d="M650,385.31l-11.08,11.22a3.53,3.53,0,0,0,0,5l11.29,11.57a3.53,3.53,0,0,0,5,.1l11.07-10.45a3.54,3.54,0,0,0,.19-5L655.12,385.4A3.54,3.54,0,0,0,650,385.31Z"
       transform="translate(-43.1 -37.14)"
       id="path59" />
    <path
       d="M606,429.3l-11.09,11.22a3.54,3.54,0,0,0,0,5L606.19,457a3.53,3.53,0,0,0,4.95.11l11.08-10.46a3.52,3.52,0,0,0,.18-4.95L611.12,429.4A3.53,3.53,0,0,0,606,429.3Z"
       transform="translate(-43.1 -37.14)"
       id="path61" />
    <path
       d="M670.74,406.05l-11.09,11.22a3.53,3.53,0,0,0,0,5l11.28,11.57a3.54,3.54,0,0,0,5,.11L687,423.44a3.55,3.55,0,0,0,.18-5l-11.28-12.33A3.52,3.52,0,0,0,670.74,406.05Z"
       transform="translate(-43.1 -37.14)"
       id="path63" />
    <path
       d="M692.51,427.83l-11.08,11.22a3.53,3.53,0,0,0,0,4.95l11.29,11.57a3.53,3.53,0,0,0,5,.1l11.07-10.45a3.54,3.54,0,0,0,.19-5l-11.28-12.34A3.54,3.54,0,0,0,692.51,427.83Z"
       transform="translate(-43.1 -37.14)"
       id="path65" />
    <path
       d="M714.54,449.85l-11.08,11.23a3.53,3.53,0,0,0,0,4.95l11.29,11.57a3.52,3.52,0,0,0,4.95.1l11.08-10.45a3.54,3.54,0,0,0,.19-5L719.67,450A3.55,3.55,0,0,0,714.54,449.85Z"
       transform="translate(-43.1 -37.14)"
       id="path67" />
    <path
       d="M627.45,449.34l-11.09,11.22a3.53,3.53,0,0,0,0,4.95l11.28,11.57a3.53,3.53,0,0,0,5,.1l11.08-10.45a3.55,3.55,0,0,0,.18-5l-11.28-12.33A3.52,3.52,0,0,0,627.45,449.34Z"
       transform="translate(-43.1 -37.14)"
       id="path69" />
    <path
       d="M649.22,471.11l-11.08,11.23a3.53,3.53,0,0,0,0,5l11.29,11.57a3.53,3.53,0,0,0,5,.1l11.07-10.45a3.54,3.54,0,0,0,.19-5l-11.28-12.34A3.54,3.54,0,0,0,649.22,471.11Z"
       transform="translate(-43.1 -37.14)"
       id="path71" />
    <path
       d="M671.25,493.14l-11.08,11.23a3.53,3.53,0,0,0,0,4.95l11.29,11.57a3.54,3.54,0,0,0,5,.1l11.07-10.46a3.52,3.52,0,0,0,.19-4.95l-11.28-12.34A3.54,3.54,0,0,0,671.25,493.14Z"
       transform="translate(-43.1 -37.14)"
       id="path73" />
    <path
       d="M736.57,471.88l-11.08,11.23a3.53,3.53,0,0,0,0,4.95l11.29,11.57a3.53,3.53,0,0,0,5,.1l11.08-10.45a3.53,3.53,0,0,0,.18-5L741.69,472A3.53,3.53,0,0,0,736.57,471.88Z"
       transform="translate(-43.1 -37.14)"
       id="path75" />
    <path
       d="M758.6,493.91l-11.09,11.23a3.53,3.53,0,0,0,0,4.95l11.29,11.57a3.53,3.53,0,0,0,5,.1l11.08-10.46a3.52,3.52,0,0,0,.18-4.95L763.72,494A3.53,3.53,0,0,0,758.6,493.91Z"
       transform="translate(-43.1 -37.14)"
       id="path77" />
    <path
       d="M782,514.53l-13.77,14a1.65,1.65,0,0,0,0,2.32L782.11,545a1.65,1.65,0,0,0,2.32,0l13.77-13a1.66,1.66,0,0,0,.08-2.32l-13.86-15.16A1.66,1.66,0,0,0,782,514.53Z"
       transform="translate(-43.1 -37.14)"
       id="path79" />
    <path
       d="M801.52,534l-13.77,14a1.65,1.65,0,0,0,0,2.32l13.87,14.21a1.65,1.65,0,0,0,2.32,0l13.77-13a1.66,1.66,0,0,0,.08-2.32l-13.86-15.16A1.66,1.66,0,0,0,801.52,534Z"
       transform="translate(-43.1 -37.14)"
       id="path81" />
    <path
       d="M823.36,555.87l-13.78,14a1.65,1.65,0,0,0,0,2.31l13.86,14.22a1.66,1.66,0,0,0,2.32,0l13.77-13a1.65,1.65,0,0,0,.09-2.32l-13.86-15.16A1.66,1.66,0,0,0,823.36,555.87Z"
       transform="translate(-43.1 -37.14)"
       id="path83" />
    <path
       d="M844.51,577l-13.77,14a1.65,1.65,0,0,0,0,2.32l13.86,14.21a1.67,1.67,0,0,0,2.33,0l13.76-13a1.65,1.65,0,0,0,.09-2.32l-13.86-15.16A1.66,1.66,0,0,0,844.51,577Z"
       transform="translate(-43.1 -37.14)"
       id="path85" />
    <path
       d="M671.58,448.76,660.49,460a3.53,3.53,0,0,0,0,4.95l11.29,11.57a3.52,3.52,0,0,0,5,.1l11.08-10.45a3.54,3.54,0,0,0,.18-5L676.7,448.86A3.52,3.52,0,0,0,671.58,448.76Z"
       transform="translate(-43.1 -37.14)"
       id="path87" />
    <path
       d="M693.61,470.79,682.52,482a3.53,3.53,0,0,0,0,4.95l11.29,11.57a3.52,3.52,0,0,0,5,.1l11.08-10.45a3.55,3.55,0,0,0,.18-5l-11.28-12.33A3.52,3.52,0,0,0,693.61,470.79Z"
       transform="translate(-43.1 -37.14)"
       id="path89" />
    <path
       d="M715.64,492.82,704.55,504a3.53,3.53,0,0,0,0,4.95l11.28,11.57a3.53,3.53,0,0,0,5,.1l11.08-10.45a3.55,3.55,0,0,0,.18-5l-11.28-12.34A3.53,3.53,0,0,0,715.64,492.82Z"
       transform="translate(-43.1 -37.14)"
       id="path91" />
    <path
       d="M737.67,514.85l-11.09,11.22a3.53,3.53,0,0,0,0,4.95l11.28,11.57a3.53,3.53,0,0,0,5,.1l11.08-10.45a3.55,3.55,0,0,0,.18-5l-11.28-12.34A3.53,3.53,0,0,0,737.67,514.85Z"
       transform="translate(-43.1 -37.14)"
       id="path93" />
    <path
       d="M761.09,535.47l-13.78,13.94a1.66,1.66,0,0,0,0,2.32l13.86,14.21a1.65,1.65,0,0,0,2.32,0l13.77-13a1.65,1.65,0,0,0,.09-2.32l-13.86-15.17A1.65,1.65,0,0,0,761.09,535.47Z"
       transform="translate(-43.1 -37.14)"
       id="path95" />
    <path
       d="M780.59,555l-13.78,13.94a1.66,1.66,0,0,0,0,2.32l13.86,14.21a1.65,1.65,0,0,0,2.32,0l13.77-13a1.65,1.65,0,0,0,.09-2.32L783,555A1.65,1.65,0,0,0,780.59,555Z"
       transform="translate(-43.1 -37.14)"
       id="path97" />
    <path
       d="M802.42,576.8l-13.77,14a1.66,1.66,0,0,0,0,2.32l13.86,14.21a1.65,1.65,0,0,0,2.32.05l13.77-13a1.65,1.65,0,0,0,.09-2.32l-13.87-15.16A1.66,1.66,0,0,0,802.42,576.8Z"
       transform="translate(-43.1 -37.14)"
       id="path99" />
    <path
       d="M823.58,598,809.8,611.9a1.66,1.66,0,0,0,0,2.32l13.86,14.21a1.65,1.65,0,0,0,2.32.05l13.77-13a1.65,1.65,0,0,0,.09-2.32L826,598A1.64,1.64,0,0,0,823.58,598Z"
       transform="translate(-43.1 -37.14)"
       id="path101" />
    <path
       d="M865.66,598.17l-13.77,14a1.65,1.65,0,0,0,0,2.32l13.87,14.21a1.65,1.65,0,0,0,2.32.05l13.77-13a1.66,1.66,0,0,0,.08-2.32l-13.86-15.16A1.66,1.66,0,0,0,865.66,598.17Z"
       transform="translate(-43.1 -37.14)"
       id="path103" />
    <path
       d="M886.81,619.33,873,633.27a1.65,1.65,0,0,0,0,2.32L886.9,649.8a1.65,1.65,0,0,0,2.32.05l13.77-13a1.66,1.66,0,0,0,.08-2.32l-13.86-15.16A1.65,1.65,0,0,0,886.81,619.33Z"
       transform="translate(-43.1 -37.14)"
       id="path105" />
    <path
       d="M779.66,599.57l-13,13.13a2.22,2.22,0,0,0,0,3.11l13.09,13.42a2.22,2.22,0,0,0,3.11.06l13-12.23A2.23,2.23,0,0,0,796,614l-13.09-14.32A2.23,2.23,0,0,0,779.66,599.57Z"
       transform="translate(-43.1 -37.14)"
       id="path107" />
    <path
       d="M800.81,620.72l-13,13.13a2.22,2.22,0,0,0,0,3.11l13.09,13.42a2.22,2.22,0,0,0,3.11.06l13-12.23a2.22,2.22,0,0,0,.12-3.11L804,620.78A2.23,2.23,0,0,0,800.81,620.72Z"
       transform="translate(-43.1 -37.14)"
       id="path109" />
    <path
       d="M822,641.87,809,655a2.22,2.22,0,0,0,0,3.11l13.09,13.42a2.22,2.22,0,0,0,3.11.07l13-12.24a2.21,2.21,0,0,0,.12-3.11l-13.09-14.31A2.21,2.21,0,0,0,822,641.87Z"
       transform="translate(-43.1 -37.14)"
       id="path111" />
    <path
       d="M843.53,662.6l-13.77,13.95a1.66,1.66,0,0,0,0,2.32l13.87,14.21a1.65,1.65,0,0,0,2.32,0l13.77-13a1.65,1.65,0,0,0,.08-2.32l-13.86-15.16A1.66,1.66,0,0,0,843.53,662.6Z"
       transform="translate(-43.1 -37.14)"
       id="path113" />
    <path
       d="M628.2,405.94,616.38,418a3.53,3.53,0,0,0,0,5l33,32.67a3.54,3.54,0,0,0,4.91.06l12.32-11.59a3.54,3.54,0,0,0,.07-5.09l-33.5-33.14A3.53,3.53,0,0,0,628.2,405.94Z"
       transform="translate(-43.1 -37.14)"
       id="path115" />
    <path
       d="M844.21,619.28,829.76,634a1.68,1.68,0,0,0,0,2.34l35.61,35.25a1.65,1.65,0,0,0,2.3,0l15.06-14.17a1.65,1.65,0,0,0,0-2.38l-36.23-35.84A1.66,1.66,0,0,0,844.21,619.28Z"
       transform="translate(-43.1 -37.14)"
       id="path117" />
    <path
       d="M694,513.82l-13.79,13.66a1.64,1.64,0,0,0,0,2.33l76.79,78.71a1.66,1.66,0,0,0,2.32,0l15-14.15a1.65,1.65,0,0,0,0-2.37l-78-78.21A1.66,1.66,0,0,0,694,513.82Z"
       transform="translate(-43.1 -37.14)"
       id="path119" />
  </g>
  <path
     d="M670.13,362.75,659,374a3.53,3.53,0,0,0,0,4.95l11.28,11.57a3.54,3.54,0,0,0,5,.1l11.08-10.46a3.53,3.53,0,0,0,.18-4.95l-11.28-12.34A3.53,3.53,0,0,0,670.13,362.75Z"
     transform="translate(-43.1 -37.14)"
     fill="#464a5f"
     id="path123" />
  <path
     d="M690.87,383.5l-11.09,11.22a3.53,3.53,0,0,0,0,4.95l11.28,11.57a3.53,3.53,0,0,0,5,.1l11.08-10.45a3.55,3.55,0,0,0,.18-5L696,383.59A3.53,3.53,0,0,0,690.87,383.5Z"
     transform="translate(-43.1 -37.14)"
     fill="#464a5f"
     id="path125" />
  <path
     d="M712.65,405.27,701.56,416.5a3.54,3.54,0,0,0,0,4.95L712.83,433a3.54,3.54,0,0,0,5,.1l11.08-10.46a3.53,3.53,0,0,0,.18-5l-11.28-12.34A3.53,3.53,0,0,0,712.65,405.27Z"
     transform="translate(-43.1 -37.14)"
     fill="#464a5f"
     id="path127" />
  <path
     d="M734.67,427.3l-11.08,11.22a3.55,3.55,0,0,0,0,5l11.29,11.57a3.54,3.54,0,0,0,5,.1l11.07-10.46a3.52,3.52,0,0,0,.19-4.95L739.8,427.4A3.54,3.54,0,0,0,734.67,427.3Z"
     transform="translate(-43.1 -37.14)"
     fill="#464a5f"
     id="path129" />
  <path
     d="M756.7,449.33l-11.08,11.22a3.54,3.54,0,0,0,0,5l11.29,11.56a3.54,3.54,0,0,0,5,.11l11.07-10.46a3.52,3.52,0,0,0,.19-5l-11.28-12.34A3.54,3.54,0,0,0,756.7,449.33Z"
     transform="translate(-43.1 -37.14)"
     fill="#464a5f"
     id="path131" />
  <path
     d="M780.12,470,766.35,483.9a1.65,1.65,0,0,0,0,2.31l13.87,14.22a1.66,1.66,0,0,0,2.32.05l13.77-13a1.65,1.65,0,0,0,.08-2.32L782.52,470A1.66,1.66,0,0,0,780.12,470Z"
     transform="translate(-43.1 -37.14)"
     fill="#464a5f"
     id="path133" />
  <path
     d="M802.15,492l-13.77,13.95a1.65,1.65,0,0,0,0,2.31l13.87,14.22a1.66,1.66,0,0,0,2.32,0l13.77-13a1.65,1.65,0,0,0,.08-2.32L804.55,492A1.66,1.66,0,0,0,802.15,492Z"
     transform="translate(-43.1 -37.14)"
     fill="#464a5f"
     id="path135" />
  <path
     d="M821.65,511.48l-13.77,13.95a1.65,1.65,0,0,0,0,2.31L821.74,542a1.66,1.66,0,0,0,2.32,0l13.77-13a1.65,1.65,0,0,0,.08-2.32l-13.86-15.16A1.66,1.66,0,0,0,821.65,511.48Z"
     transform="translate(-43.1 -37.14)"
     fill="#464a5f"
     id="path137" />
  <path
     d="M843.49,533.32l-13.77,13.94a1.65,1.65,0,0,0,0,2.32l13.87,14.21a1.65,1.65,0,0,0,2.32.05l13.77-13a1.66,1.66,0,0,0,.08-2.32l-13.86-15.17A1.66,1.66,0,0,0,843.49,533.32Z"
     transform="translate(-43.1 -37.14)"
     fill="#464a5f"
     id="path139" />
  <path
     d="M864.64,554.47l-13.77,13.94a1.65,1.65,0,0,0,0,2.32L864.73,585a1.66,1.66,0,0,0,2.32,0l13.77-13a1.66,1.66,0,0,0,.08-2.32L867,554.52A1.66,1.66,0,0,0,864.64,554.47Z"
     transform="translate(-43.1 -37.14)"
     fill="#464a5f"
     id="path141" />
  <path
     d="M885.79,575.62l-13.77,14a1.65,1.65,0,0,0,0,2.31l13.87,14.22a1.66,1.66,0,0,0,2.32,0l13.77-13a1.65,1.65,0,0,0,.08-2.32l-13.86-15.16A1.66,1.66,0,0,0,885.79,575.62Z"
     transform="translate(-43.1 -37.14)"
     fill="#464a5f"
     id="path143" />
  <path
     d="M906.94,596.77l-13.77,14a1.66,1.66,0,0,0,0,2.32L907,627.25a1.66,1.66,0,0,0,2.32,0l13.77-13a1.65,1.65,0,0,0,.08-2.32l-13.86-15.16A1.66,1.66,0,0,0,906.94,596.77Z"
     transform="translate(-43.1 -37.14)"
     fill="#464a5f"
     id="path145" />
  <path
     d="M650,382.89l-11.08,11.22a3.53,3.53,0,0,0,0,4.95l11.29,11.57a3.53,3.53,0,0,0,5,.1l11.07-10.45a3.54,3.54,0,0,0,.19-5L655.12,383A3.54,3.54,0,0,0,650,382.89Z"
     transform="translate(-43.1 -37.14)"
     fill="#464a5f"
     id="path147" />
  <path
     d="M606,426.88,594.91,438.1a3.54,3.54,0,0,0,0,5l11.29,11.56a3.53,3.53,0,0,0,4.95.11l11.08-10.46a3.54,3.54,0,0,0,.18-5L611.12,427A3.52,3.52,0,0,0,606,426.88Z"
     transform="translate(-43.1 -37.14)"
     fill="#464a5f"
     id="path149" />
  <path
     d="M670.74,403.63l-11.09,11.22a3.53,3.53,0,0,0,0,4.95l11.28,11.57a3.53,3.53,0,0,0,5,.1L687,421a3.55,3.55,0,0,0,.18-5l-11.28-12.33A3.52,3.52,0,0,0,670.74,403.63Z"
     transform="translate(-43.1 -37.14)"
     fill="#464a5f"
     id="path151" />
  <path
     d="M692.51,425.4l-11.08,11.23a3.53,3.53,0,0,0,0,4.95l11.29,11.57a3.53,3.53,0,0,0,5,.1l11.07-10.45a3.54,3.54,0,0,0,.19-5L697.64,425.5A3.55,3.55,0,0,0,692.51,425.4Z"
     transform="translate(-43.1 -37.14)"
     fill="#464a5f"
     id="path153" />
  <path
     d="M714.54,447.43l-11.08,11.23a3.53,3.53,0,0,0,0,4.95l11.29,11.57a3.53,3.53,0,0,0,4.95.1l11.08-10.45a3.54,3.54,0,0,0,.19-5l-11.28-12.34A3.54,3.54,0,0,0,714.54,447.43Z"
     transform="translate(-43.1 -37.14)"
     fill="#464a5f"
     id="path155" />
  <path
     d="M627.45,446.92l-11.09,11.22a3.53,3.53,0,0,0,0,4.95l11.28,11.57a3.53,3.53,0,0,0,5,.1l11.08-10.45a3.55,3.55,0,0,0,.18-5L632.57,447A3.52,3.52,0,0,0,627.45,446.92Z"
     transform="translate(-43.1 -37.14)"
     fill="#464a5f"
     id="path157" />
  <path
     d="M649.22,468.69l-11.08,11.23a3.53,3.53,0,0,0,0,4.95l11.29,11.57a3.54,3.54,0,0,0,5,.1l11.07-10.45a3.54,3.54,0,0,0,.19-5l-11.28-12.34A3.54,3.54,0,0,0,649.22,468.69Z"
     transform="translate(-43.1 -37.14)"
     fill="#464a5f"
     id="path159" />
  <path
     d="M671.25,490.72,660.17,502a3.53,3.53,0,0,0,0,4.95l11.29,11.57a3.54,3.54,0,0,0,5,.1l11.07-10.46a3.52,3.52,0,0,0,.19-4.95l-11.28-12.34A3.54,3.54,0,0,0,671.25,490.72Z"
     transform="translate(-43.1 -37.14)"
     fill="#464a5f"
     id="path161" />
  <path
     d="M736.57,469.46l-11.08,11.23a3.53,3.53,0,0,0,0,4.95l11.29,11.57a3.53,3.53,0,0,0,5,.1l11.08-10.46a3.52,3.52,0,0,0,.18-5l-11.28-12.34A3.53,3.53,0,0,0,736.57,469.46Z"
     transform="translate(-43.1 -37.14)"
     fill="#464a5f"
     id="path163" />
  <path
     d="M758.6,491.49l-11.09,11.23a3.53,3.53,0,0,0,0,4.95l11.29,11.57a3.53,3.53,0,0,0,5,.1l11.08-10.46a3.52,3.52,0,0,0,.18-4.95l-11.28-12.34A3.53,3.53,0,0,0,758.6,491.49Z"
     transform="translate(-43.1 -37.14)"
     fill="#464a5f"
     id="path165" />
  <path
     d="M782,512.11l-13.77,13.95a1.65,1.65,0,0,0,0,2.32l13.87,14.21a1.65,1.65,0,0,0,2.32,0l13.77-13a1.66,1.66,0,0,0,.08-2.32l-13.86-15.16A1.66,1.66,0,0,0,782,512.11Z"
     transform="translate(-43.1 -37.14)"
     fill="#464a5f"
     id="path167" />
  <path
     d="M801.52,531.61l-13.77,13.95a1.65,1.65,0,0,0,0,2.32l13.87,14.21a1.65,1.65,0,0,0,2.32,0l13.77-13a1.66,1.66,0,0,0,.08-2.32l-13.86-15.16A1.66,1.66,0,0,0,801.52,531.61Z"
     transform="translate(-43.1 -37.14)"
     fill="#464a5f"
     id="path169" />
  <path
     d="M823.36,553.45,809.58,567.4a1.65,1.65,0,0,0,0,2.31l13.86,14.22a1.66,1.66,0,0,0,2.32,0l13.77-13a1.65,1.65,0,0,0,.09-2.32L825.76,553.5A1.66,1.66,0,0,0,823.36,553.45Z"
     transform="translate(-43.1 -37.14)"
     fill="#464a5f"
     id="path171" />
  <path
     d="M844.51,574.6l-13.77,13.95a1.65,1.65,0,0,0,0,2.32l13.86,14.21a1.67,1.67,0,0,0,2.33,0l13.76-13a1.65,1.65,0,0,0,.09-2.32l-13.86-15.16A1.66,1.66,0,0,0,844.51,574.6Z"
     transform="translate(-43.1 -37.14)"
     fill="#464a5f"
     id="path173" />
  <path
     d="M671.58,446.34l-11.09,11.22a3.53,3.53,0,0,0,0,4.95l11.29,11.57a3.52,3.52,0,0,0,5,.1l11.08-10.45a3.54,3.54,0,0,0,.18-5L676.7,446.44A3.52,3.52,0,0,0,671.58,446.34Z"
     transform="translate(-43.1 -37.14)"
     fill="#464a5f"
     id="path175" />
  <path
     d="M693.61,468.37l-11.09,11.22a3.53,3.53,0,0,0,0,5l11.29,11.57a3.52,3.52,0,0,0,5,.1l11.08-10.45a3.55,3.55,0,0,0,.18-5l-11.28-12.33A3.52,3.52,0,0,0,693.61,468.37Z"
     transform="translate(-43.1 -37.14)"
     fill="#464a5f"
     id="path177" />
  <path
     d="M715.64,490.4l-11.09,11.22a3.53,3.53,0,0,0,0,4.95l11.28,11.57a3.53,3.53,0,0,0,5,.1l11.08-10.45a3.55,3.55,0,0,0,.18-5l-11.28-12.34A3.53,3.53,0,0,0,715.64,490.4Z"
     transform="translate(-43.1 -37.14)"
     fill="#464a5f"
     id="path179" />
  <path
     d="M737.67,512.42l-11.09,11.23a3.53,3.53,0,0,0,0,5l11.28,11.57a3.53,3.53,0,0,0,5,.1l11.08-10.45a3.55,3.55,0,0,0,.18-5l-11.28-12.34A3.54,3.54,0,0,0,737.67,512.42Z"
     transform="translate(-43.1 -37.14)"
     fill="#464a5f"
     id="path181" />
  <path
     d="M761.09,533.05,747.31,547a1.66,1.66,0,0,0,0,2.32l13.86,14.21a1.65,1.65,0,0,0,2.32.05l13.77-13a1.66,1.66,0,0,0,.09-2.33l-13.86-15.16A1.65,1.65,0,0,0,761.09,533.05Z"
     transform="translate(-43.1 -37.14)"
     fill="#464a5f"
     id="path183" />
  <path
     d="M780.59,552.55l-13.78,13.94a1.66,1.66,0,0,0,0,2.32L780.67,583a1.65,1.65,0,0,0,2.32.05l13.77-13a1.66,1.66,0,0,0,.09-2.33L783,552.59A1.65,1.65,0,0,0,780.59,552.55Z"
     transform="translate(-43.1 -37.14)"
     fill="#464a5f"
     id="path185" />
  <path
     d="M802.42,574.38l-13.77,14a1.66,1.66,0,0,0,0,2.32l13.86,14.21a1.65,1.65,0,0,0,2.32,0l13.77-13a1.65,1.65,0,0,0,.09-2.32l-13.87-15.16A1.66,1.66,0,0,0,802.42,574.38Z"
     transform="translate(-43.1 -37.14)"
     fill="#464a5f"
     id="path187" />
  <path
     d="M823.58,595.54,809.8,609.48a1.66,1.66,0,0,0,0,2.32L823.66,626a1.65,1.65,0,0,0,2.32,0l13.77-13a1.65,1.65,0,0,0,.09-2.32L826,595.58A1.64,1.64,0,0,0,823.58,595.54Z"
     transform="translate(-43.1 -37.14)"
     fill="#464a5f"
     id="path189" />
  <path
     d="M865.66,595.75l-13.77,14a1.65,1.65,0,0,0,0,2.32l13.87,14.21a1.65,1.65,0,0,0,2.32,0l13.77-13a1.66,1.66,0,0,0,.08-2.32L868.06,595.8A1.66,1.66,0,0,0,865.66,595.75Z"
     transform="translate(-43.1 -37.14)"
     fill="#464a5f"
     id="path191" />
  <path
     d="M886.81,616.9l-13.77,14a1.65,1.65,0,0,0,0,2.32l13.87,14.21a1.65,1.65,0,0,0,2.32,0l13.77-13a1.66,1.66,0,0,0,.08-2.32L889.21,617A1.66,1.66,0,0,0,886.81,616.9Z"
     transform="translate(-43.1 -37.14)"
     fill="#464a5f"
     id="path193" />
  <path
     d="M779.66,597.15l-13,13.13a2.22,2.22,0,0,0,0,3.11l13.09,13.42a2.22,2.22,0,0,0,3.11.06l13-12.23a2.23,2.23,0,0,0,.12-3.11l-13.09-14.32A2.23,2.23,0,0,0,779.66,597.15Z"
     transform="translate(-43.1 -37.14)"
     fill="#464a5f"
     id="path195" />
  <path
     d="M800.81,618.3l-13,13.13a2.22,2.22,0,0,0,0,3.11L800.93,648A2.22,2.22,0,0,0,804,648l13-12.23a2.22,2.22,0,0,0,.12-3.11L804,618.36A2.23,2.23,0,0,0,800.81,618.3Z"
     transform="translate(-43.1 -37.14)"
     fill="#464a5f"
     id="path197" />
  <path
     d="M822,639.45l-13,13.13a2.22,2.22,0,0,0,0,3.11l13.09,13.42a2.21,2.21,0,0,0,3.11.06l13-12.23a2.21,2.21,0,0,0,.12-3.11l-13.09-14.32A2.22,2.22,0,0,0,822,639.45Z"
     transform="translate(-43.1 -37.14)"
     fill="#464a5f"
     id="path199" />
  <path
     d="M843.53,660.18l-13.77,14a1.66,1.66,0,0,0,0,2.32l13.87,14.21a1.66,1.66,0,0,0,2.32.05l13.77-13a1.65,1.65,0,0,0,.08-2.32l-13.86-15.16A1.66,1.66,0,0,0,843.53,660.18Z"
     transform="translate(-43.1 -37.14)"
     fill="#464a5f"
     id="path201" />
  <path
     d="M628.2,403.52l-11.82,12.07a3.53,3.53,0,0,0,0,5l33,32.67a3.54,3.54,0,0,0,4.91.06l12.32-11.59a3.54,3.54,0,0,0,.07-5.09l-33.5-33.14A3.53,3.53,0,0,0,628.2,403.52Z"
     transform="translate(-43.1 -37.14)"
     fill="#464a5f"
     id="path203" />
  <path
     d="M844.21,616.86l-14.45,14.75a1.68,1.68,0,0,0,0,2.34l35.61,35.25a1.65,1.65,0,0,0,2.3,0l15.06-14.17a1.65,1.65,0,0,0,0-2.38l-36.23-35.84A1.65,1.65,0,0,0,844.21,616.86Z"
     transform="translate(-43.1 -37.14)"
     fill="#464a5f"
     id="path205" />
  <path
     d="M694,511.4l-13.79,13.66a1.64,1.64,0,0,0,0,2.33l76.79,78.71a1.66,1.66,0,0,0,2.32,0l15-14.15a1.65,1.65,0,0,0,0-2.37l-78-78.21A1.66,1.66,0,0,0,694,511.4Z"
     transform="translate(-43.1 -37.14)"
     fill="#464a5f"
     id="path207" />
  <path
     d="M639.83,521,579.2,581.23a9,9,0,0,0-.1,12.66L691.24,709.05a9,9,0,0,0,12.76.14l62.43-61.41a9,9,0,0,0,.05-12.77L652.54,521A9,9,0,0,0,639.83,521Z"
     transform="translate(-43.1 -37.14)"
     opacity="0.1"
     id="path209" />
  <path
     d="M639.83,518.53,579.2,578.81a9,9,0,0,0-.1,12.66L691.24,706.63a9,9,0,0,0,12.76.14l62.43-61.41a9,9,0,0,0,.05-12.77l-113.94-114A9,9,0,0,0,639.83,518.53Z"
     transform="translate(-43.1 -37.14)"
     fill="#939498"
     id="path211" />
  <path
     d="m 697.65034,149.56566 -19.26845,153.01235 292.11772,293.47414 20.42203,-150.57388 c 0.78849,-5.82279 2.64723,-9.11072 -1.51194,-13.26137 L 703.96034,147.44566 c -2.1729,-2.16531 -5.88528,-0.91804 -6.31,2.12 z"
     fill="#6c63ff"
     id="path213"
     sodipodi:nodetypes="ccccccc"
     transform="translate(-43.1,-37.14)" />
  <ellipse
     cx="295.09"
     cy="682.36"
     rx="23.11"
     ry="3.17"
     fill="#6c63ff"
     opacity="0.1"
     id="ellipse215" />
  <ellipse
     cx="206.55"
     cy="691.34"
     rx="23.11"
     ry="3.17"
     fill="#6c63ff"
     opacity="0.1"
     id="ellipse217" />
  <ellipse
     cx="102.27"
     cy="679.19"
     rx="23.11"
     ry="3.17"
     fill="#6c63ff"
     opacity="0.1"
     id="ellipse219" />
  <ellipse
     cx="241.99"
     cy="716.9"
     rx="16.43"
     ry="2.26"
     fill="#6c63ff"
     opacity="0.1"
     id="ellipse221" />
  <ellipse
     cx="150.1"
     cy="714.64"
     rx="16.43"
     ry="2.26"
     fill="#6c63ff"
     opacity="0.1"
     id="ellipse223" />
  <path
     d="M249.16,727.77S281.57,621.51,244.08,579c-28-31.84-59.87-28-74.13-24.09a26.34,26.34,0,0,0-17,14.12c-5,10.76-4.08,28.21,31.1,48.58,58.92,34.11,62.58,80.9,62.58,80.9Z"
     transform="translate(-43.1 -37.14)"
     fill="#6c63ff"
     id="path225" />
  <path
     d="M175,569.93s95.56,29.87,74.14,157.84"
     transform="translate(-43.1 -37.14)"
     fill="none"
     stroke="#565987"
     stroke-miterlimit="10"
     id="path227" />
  <path
     d="M230.83,580.64s-13.15,8.86-9,22.19"
     transform="translate(-43.1 -37.14)"
     fill="none"
     stroke="#565987"
     stroke-miterlimit="10"
     id="path229" />
  <path
     d="M184.61,588.53s8-8.18,17.83-3.67"
     transform="translate(-43.1 -37.14)"
     fill="none"
     stroke="#565987"
     stroke-miterlimit="10"
     id="path231" />
  <path
     d="M222.38,629.68s14.12-7.17,17.78,1.81"
     transform="translate(-43.1 -37.14)"
     fill="none"
     stroke="#565987"
     stroke-miterlimit="10"
     id="path233" />
  <path
     d="M257.33,644.62s-10.61-.84-10.8,4.23"
     transform="translate(-43.1 -37.14)"
     fill="none"
     stroke="#565987"
     stroke-miterlimit="10"
     id="path235" />
  <path
     d="M250.47,728.62s-38-77.23-48.4-75.54c-4.95.8-7.23,5.67-8.26,10.57a31.16,31.16,0,0,0,2.06,18.8C201.26,694.81,215.73,718.28,250.47,728.62Z"
     transform="translate(-43.1 -37.14)"
     fill="#6c63ff"
     id="path237" />
  <path
     d="M202.36,667.73s39.84,57.79,47.54,60.32"
     transform="translate(-43.1 -37.14)"
     fill="none"
     stroke="#565987"
     stroke-miterlimit="10"
     id="path239" />
  <line
     x1="155.59"
     y1="639.61"
     x2="164.89"
     y2="639.61"
     fill="none"
     stroke="#565987"
     stroke-miterlimit="10"
     id="line241" />
  <line
     x1="166.73"
     y1="660.75"
     x2="181.31"
     y2="661.37"
     fill="none"
     stroke="#565987"
     stroke-miterlimit="10"
     id="line243" />
  <line
     x1="175.6"
     y1="643.84"
     x2="174.02"
     y2="651.43"
     fill="none"
     stroke="#565987"
     stroke-miterlimit="10"
     id="line245" />
  <line
     x1="191.11"
     y1="666.95"
     x2="190.82"
     y2="673.85"
     fill="none"
     stroke="#565987"
     stroke-miterlimit="10"
     id="line247" />
  <path
     d="M249.34,728.62s38-77.23,48.39-75.54c5,.8,7.24,5.67,8.27,10.57a31.08,31.08,0,0,1-2.07,18.8C298.55,694.81,284.08,718.28,249.34,728.62Z"
     transform="translate(-43.1 -37.14)"
     fill="#6c63ff"
     id="path249" />
  <path
     d="M297.45,667.73s-39.85,57.79-47.55,60.32"
     transform="translate(-43.1 -37.14)"
     fill="none"
     stroke="#565987"
     stroke-miterlimit="10"
     id="path251" />
  <line
     x1="258.01"
     y1="639.61"
     x2="248.71"
     y2="639.61"
     fill="none"
     stroke="#565987"
     stroke-miterlimit="10"
     id="line253" />
  <line
     x1="246.87"
     y1="660.75"
     x2="232.29"
     y2="661.37"
     fill="none"
     stroke="#565987"
     stroke-miterlimit="10"
     id="line255" />
  <line
     x1="238"
     y1="643.84"
     x2="239.58"
     y2="651.43"
     fill="none"
     stroke="#565987"
     stroke-miterlimit="10"
     id="line257" />
  <line
     x1="222.5"
     y1="666.95"
     x2="222.78"
     y2="673.85"
     fill="none"
     stroke="#565987"
     stroke-miterlimit="10"
     id="line259" />
  <path
     d="M184.15,746.65a6.55,6.55,0,0,1-2.16-3.26,2.9,2.9,0,0,1,1.51-3.32c1.39-.53,2.87.43,4,1.4s2.42,2.08,3.89,1.88a5.9,5.9,0,0,1-1.83-5.53,2.25,2.25,0,0,1,.51-1.13c.77-.82,2.16-.47,3.08.18,2.94,2.06,3.75,6,3.77,9.63a18.14,18.14,0,0,0,.05-4,4.09,4.09,0,0,1,1.49-3.51,4.55,4.55,0,0,1,2.27-.53,4.68,4.68,0,0,1,3.69,1c1.12,1.2.83,3.2-.15,4.52a14.22,14.22,0,0,1-3.81,3.06,8.38,8.38,0,0,0-2.73,2.6,2.77,2.77,0,0,0-.2.46h-8.26A23.05,23.05,0,0,1,184.15,746.65Z"
     transform="translate(-43.1 -37.14)"
     fill="#6c63ff"
     id="path261" />
  <path
     d="M328.82,715.55a6.61,6.61,0,0,1-2.17-3.26,2.91,2.91,0,0,1,1.51-3.32c1.39-.53,2.87.43,4,1.4s2.41,2.08,3.88,1.87a5.92,5.92,0,0,1-1.83-5.53,2.35,2.35,0,0,1,.51-1.12c.77-.83,2.16-.47,3.09.18,2.93,2.06,3.75,6,3.76,9.62a18.06,18.06,0,0,0,.06-4,4,4,0,0,1,1.49-3.51,4.4,4.4,0,0,1,2.27-.53,4.7,4.7,0,0,1,3.68,1c1.12,1.2.83,3.21-.14,4.53a14.23,14.23,0,0,1-3.82,3,8.66,8.66,0,0,0-2.72,2.6,2.22,2.22,0,0,0-.2.47h-8.27A23,23,0,0,1,328.82,715.55Z"
     transform="translate(-43.1 -37.14)"
     fill="#6c63ff"
     id="path263" />
  <path
     d="M280.6,746.65a6.55,6.55,0,0,1-2.16-3.26,2.9,2.9,0,0,1,1.51-3.32c1.39-.53,2.87.43,4,1.4s2.42,2.08,3.89,1.88a5.9,5.9,0,0,1-1.83-5.53,2.25,2.25,0,0,1,.51-1.13c.77-.82,2.16-.47,3.08.18,2.93,2.06,3.75,6,3.77,9.63a18.14,18.14,0,0,0,.05-4A4.09,4.09,0,0,1,294.9,739a4.55,4.55,0,0,1,2.27-.53,4.68,4.68,0,0,1,3.69,1c1.12,1.2.83,3.2-.15,4.52a14.22,14.22,0,0,1-3.81,3.06,8.38,8.38,0,0,0-2.73,2.6,2.77,2.77,0,0,0-.2.46h-8.26A23.05,23.05,0,0,1,280.6,746.65Z"
     transform="translate(-43.1 -37.14)"
     fill="#6c63ff"
     id="path265" />
  <path
     d="M143.87,683.78s-3.1,4.05,1.43,10.16,8.26,11.28,6.75,15.09c0,0-6.83-11.36-12.39-11.51S137.75,690.61,143.87,683.78Z"
     transform="translate(-43.1 -37.14)"
     fill="#6c63ff"
     id="path267" />
  <path
     d="M143.87,683.78a5.1,5.1,0,0,0-.63,1.27c-5.43,6.37-8.32,12.32-3.1,12.47,4.85.13,10.68,8.82,12.07,11a4.16,4.16,0,0,1-.16.5s-6.83-11.36-12.39-11.51S137.75,690.61,143.87,683.78Z"
     transform="translate(-43.1 -37.14)"
     opacity="0.1"
     id="path269" />
  <path
     d="M138.11,688.94c0,1.43.16,2.58.36,2.58s.36-1.15.36-2.58-.2-.75-.4-.75S138.11,687.51,138.11,688.94Z"
     transform="translate(-43.1 -37.14)"
     fill="#ffd037"
     id="path271" />
  <path
     d="M136.14,690.64c1.25.68,2.34,1.1,2.43.92s-.84-.86-2.09-1.55-.76-.18-.85,0S134.89,690,136.14,690.64Z"
     transform="translate(-43.1 -37.14)"
     fill="#ffd037"
     id="path273" />
  <path
     d="M160.23,683.78s3.09,4.05-1.43,10.16-8.26,11.28-6.75,15.09c0,0,6.83-11.36,12.39-11.51S166.34,690.61,160.23,683.78Z"
     transform="translate(-43.1 -37.14)"
     fill="#6c63ff"
     id="path275" />
  <path
     d="M160.23,683.78a5.1,5.1,0,0,1,.63,1.27c5.42,6.37,8.31,12.32,3.1,12.47-4.86.13-10.68,8.82-12.08,11a4.2,4.2,0,0,0,.17.5s6.83-11.36,12.39-11.51S166.34,690.61,160.23,683.78Z"
     transform="translate(-43.1 -37.14)"
     opacity="0.1"
     id="path277" />
  <path
     d="M166,688.94c0,1.43-.16,2.58-.35,2.58s-.36-1.15-.36-2.58.2-.75.4-.75S166,687.51,166,688.94Z"
     transform="translate(-43.1 -37.14)"
     fill="#ffd037"
     id="path279" />
  <path
     d="M168,690.64c-1.25.68-2.34,1.1-2.44.92s.85-.86,2.1-1.55.76-.18.85,0S169.21,690,168,690.64Z"
     transform="translate(-43.1 -37.14)"
     fill="#ffd037"
     id="path281" />
  <path
     d="M165,708.5s-8.66-.27-11.27-2.12-13.32-4.08-14-1.1-13,14.82-3.23,14.9,22.71-1.52,25.32-3.11S165,708.5,165,708.5Z"
     transform="translate(-43.1 -37.14)"
     fill="#a8a8a8"
     id="path283" />
  <path
     d="M136.35,719.14c9.78.08,22.72-1.52,25.32-3.11,2-1.21,2.77-5.54,3-7.54H165s-.55,7-3.15,8.57-15.55,3.19-25.32,3.11c-2.82,0-3.8-1-3.75-2.51C133.18,718.56,134.25,719.12,136.35,719.14Z"
     transform="translate(-43.1 -37.14)"
     opacity="0.2"
     id="path285" />
  <path
     d="m 215.56,371.22 c -0.16,4.2 3.44,9.78 3.44,9.78 1.1,2.65 14.59,14.93 14.59,14.93 l 10,6.68 c -2.02016,1.49059 -4.13827,2.84364 -6.34,4.05 -4.87,2.49 -7.53,10.73 -7.53,10.73 0,0 -7.38,17.73 7.53,20.22 l 0.28,0.05 1.34,1.45 c 3.3,3.56 7.33,7.81 8.73,8.76 2.51,1.71 10.2,14.62 10.2,14.62 0,0 8.15,13.38 19,14 10.85,0.62 10.82,-11.82 10,-12.6 -0.32586,-0.5207 -0.55299,-1.09699 -0.67,-1.7 2.59,4.17 6.12,9.65 7.26,10.41 1.88,1.24 8,11 8,11 0,0 7.69,17.57 8.94,19.44 1.25,1.87 3.45,11.2 3.45,11.2 0,0 4.4,12.9 6.44,14.62 2.04,1.72 3.13,7.93 3.13,7.93 0,0 6.43,9.33 7.53,10.88 1.28673,2.26342 2.43874,4.60082 3.45,7 0,0 3.45,5.6 3.45,7.78 0,2.18 7.22,5.9 7.22,5.9 0,0 5.18,6.07 8.16,7.16 2.98,1.09 5.8,8.24 6.27,7.77 0.27737,-0.13221 0.58305,-0.19403 0.89,-0.18 l 1.22,1.22 c 4.76,4.74 14.27,14.19 16.71,16.38 3.3,3 10.83,3.42 17.1,2.18 3.22,-0.64 7.14,-3.69 10.19,-6.51 2.91006,-2.72167 2.96464,-7.32003 0.12,-10.11 -3,-2.89 -6.47,-6.06 -8,-6.55 -2.82,-0.94 -10.82,-6.53 -14.58,-11.2 -2,-2.43 -5.51,-4.74 -8.46,-6.39 l -0.36,-0.21 c -0.45076,-1.71106 -0.75519,-3.45735 -0.91,-5.22 0,0 5.18,-11.66 2.35,-12.28 -2.83,-0.62 -13.49,-19.13 -13.49,-19.13 -0.15,-14 -13,-25.82 -13,-25.82 0,0 -6.43,-15.24 -8.31,-18.5 -1.14338,-1.69158 -1.14338,-3.90842 0,-5.6 0,0 -3.61,-2.8 -4.23,-4.2 -0.62,-1.4 -3.61,-12 -3.61,-12 0,0 -3.61,-6.38 -3.77,-9.33 -0.16,-2.95 -7.19,-11.18 -7.19,-11.18 0,0 -2.85,-13.86 -6,-16.35 -0.61,-0.48 -0.52,-2.31 0,-4.94 l 0.15,-0.16 0.48,-0.47 0.14,-0.14 c 1.44138,-1.42168 2.79709,-2.92766 4.06,-4.51 l 0.06,-0.08 c 0.2,-0.25 0.39,-0.49 0.57,-0.74 4.55,-6.22 7.37,-21 7.37,-21 0,0 0.9,-0.42 2.07,-1.06 1.64409,-0.82121 3.16545,-1.86798 4.52,-3.11 0.0647,-0.0718 0.11855,-0.15269 0.16,-0.24 0.005,-0.0264 0.005,-0.0536 0,-0.08 0.0309,-0.0615 0.0576,-0.12495 0.08,-0.19 0.004,-0.0366 0.004,-0.0734 0,-0.11 0.006,-0.0732 0.006,-0.14678 0,-0.22 v -0.11 -0.36 c 0,-0.13 0,-0.26 -0.05,-0.4 -9.7e-4,-0.0166 -9.7e-4,-0.0333 0,-0.05 0,-0.12 -0.05,-0.24 -0.08,-0.37 v -0.12 c 0,-0.11 -0.06,-0.22 -0.1,-0.34 0.003,-0.0433 0.003,-0.0867 0,-0.13 L 335.41,383 c -0.004,-0.0299 -0.004,-0.0601 0,-0.09 -0.19,-0.5 -0.42,-1 -0.68,-1.54 v 0 l -0.27,-0.51 v 0 c -0.49,-0.93 -1,-1.84 -1.54,-2.63 l -0.08,-0.12 c 1.1,-3.1 3.23,-8.56 5.21,-10.52 2.82,-2.8 -1.57,-17.73 -1.57,-17.73 0,0 -0.94,-10.57 -2.2,-13.68 -1.26,-3.11 0,-3.56 -1,-6.22 -1.21,-3 -2.09,-2.8 -0.53,-9.64 0.59,-2.58 1.5,-5.42 2.32,-8.07 l 1,0.92 c 5.8,5.47 14.91,12.59 14.91,12.59 0,0 17.88,16.17 19.45,16.64 1.57,0.47 6.28,16.33 6.28,16.33 0,0 -1.1,26.28 13.33,27.37 6.13,0.46 8.73,-4.28 9.67,-9.87 1.40769,-8.78424 -1.18558,-17.73781 -7.07,-24.41 L 384,342 376.31,328.32 c -4.8953,-7.72303 -9.01851,-15.90916 -12.31,-24.44 -3.49367,-8.35927 -8.62045,-15.93726 -15.08,-22.29 l -0.62,-0.61 0.8,-0.74 c 0,0 -1.26,-10.26 -2.2,-11.5 -0.94,-1.24 -4.39,-8.4 -4.39,-10 0,-1.6 -2.2,-1.86 -3.45,-3.73 0,0 -2.2,-4.35 -4.24,-5 -0.37264,-0.14459 -0.71263,-0.36218 -1,-0.64 -3.57699,-3.16217 -8.06639,-5.10571 -12.82,-5.55 l -1.25,-0.12 c -2.77991,-0.12581 -5.56486,-0.0857 -8.34,0.12 h -0.07 c -2.13,-0.64 -3.74,-2.3 -5.39,-3.78 -2.65725,-2.37748 -5.60386,-4.4102 -8.77,-6.05 -3.25,-1.69 -6.93,-3 -10.56,-2.38 -2.84,0.46 -5.38,2 -8.15,2.81 -3.94,1.11 -8.78,0.88 -11.26,4.11 -1.19,1.54 -1.53,3.59 -2.64,5.18 8.55405,4.53822 4.84254,8.31187 4.84254,8.31187 0.0214,2.44793 -0.33231,1.81648 -0.89481,3.47698 -0.10129,0.52732 -0.82423,4.27738 -0.75606,4.81 -0.3,2.39 -0.63329,1.9175 -1.62925,5.94393 0.12187,4.19591 1.33436,3.5829 1.57,5.48 -2.60235,0.76961 -11.56258,10.87982 -14.01242,12.04722 -3.27,1.58 -6.56,3.72 -8.44,6.46 -3.06051,4.30337 -6.89183,8.00246 -11.3,10.91 -1.35666,3.34019 -2.50879,6.75984 -3.45,10.24 -0.94,4 -1.88,10.57 -4.7,14 -2.82,3.43 -4.12,13.61 -4.12,13.61 0,0 -3.77,6.06 -3.77,7.31 0,1.25 -0.47,7 0,8.7 0.27659,0.53401 0.64563,1.01478 1.09,1.42 l -0.28,1 c -1.3,4.57 -3.06,11.16 -3.16,13.79 z M 304,301.17 c -0.08,0.35 -0.17,0.68 -0.28,1 0,-0.32 0.05,-0.63 0.07,-0.95 z m -35.74,132.92 -0.5,-0.46 -0.24,-0.22 c 0,-0.12 0.06,-0.24 0.09,-0.38 z m -26,-63.65 0.2,-0.37 0.74,-1.34 6,-4.9 0.77,0.7 c 0,0 -0.63,6.53 -2.19,6.22 -0.36,-0.07 -0.52,1.43 -0.56,3.78 -2.83,-2.42 -4.99,-4.09 -4.99,-4.09 z"
     transform="translate(-43.1,-37.14)"
     fill="url(#38c043cc-bff7-4144-86c9-76214eedfc2b)"
     id="path287"
     sodipodi:nodetypes="cccccccccccsccccscscccscsccccccccccccsccccscsccccccccccccccccccscccsccccsccsccccscccccsccccccccccssccccccccccccccccccccccscscccccccccccccccccccccc" />
  <path
     d="M296.41,249.31s18.67-1.68,23.11-1.22l1.21.11a21.88,21.88,0,0,1,12.45,5.53,3,3,0,0,0,1,.63c2,.61,4.13,4.9,4.13,4.9s-4.74,37.49-4.74,37.95-9.8,17.44-9.8,17.44l-9.49,3.68-16.37,2.31-.46-7.06s7.88-4.32,7-13.25S296.41,249.31,296.41,249.31Z"
     transform="translate(-43.1 -37.14)"
     fill="#464353"
     id="path289" />
  <path
     d="M305.59,293.84s-4,18.06,0,23.87-39.48-9.48-39.48-9.48l-8-14.39s3-2.13,6.38-4.88c4.76-3.83,10.46-8.85,10.46-11C275,274.25,305.59,293.84,305.59,293.84Z"
     transform="translate(-43.1 -37.14)"
     fill="#ecb4b6"
     id="path291" />
  <path
     d="M305.59,293.84s-4,18.06,0,23.87-39.48-9.48-39.48-9.48l-8-14.39s3-2.13,6.38-4.88c4.76-3.83,10.46-8.85,10.46-11C275,274.25,305.59,293.84,305.59,293.84Z"
     transform="translate(-43.1 -37.14)"
     opacity="0.1"
     id="path293" />
  <path
     id="circle295"
     style="opacity:0.1"
     d="m 278.75345,243.97673 c -1.05627,13.74004 -11.43268,24.69326 -25.4435,24.69326 -6.96058,0 -12.74998,-2.2187 -17.49441,-6.59104 -5.2803,-4.8662 -9.13559,-12.29219 -9.13559,-20.03896 0,-14.70734 11.92266,-26.63 26.63,-26.63 14.70734,0 24.83441,17.89282 24.83441,17.89282 0.47807,3.5518 0.7433,7.09525 0.60909,10.67392 z"
     sodipodi:nodetypes="csssscc" />
  <path
     id="circle297"
     style="fill:#ecb4b6"
     d="m 275.85293,240.85391 c 0,14.70734 -8.60381,26.44739 -23.31115,26.44739 -6.85351,0 -11.40779,-2.05398 -16.12725,-6.3073 -5.4083,-4.87412 -9.73453,-12.33017 -9.73453,-20.184 0,-14.70734 11.92266,-26.63 26.63,-26.63 14.70734,0 22.54293,11.96657 22.54293,26.67391 z"
     sodipodi:nodetypes="ssssss" />
  <path
     d="M330.84,311c.1,1,2,3.07,4.58,5.52,5.66,5.38,14.55,12.39,14.55,12.39s17.45,15.91,19,16.37,6.12,16.07,6.12,16.07-1.07,25.86,13,26.93c6,.45,8.52-4.2,9.44-9.71a29.49,29.49,0,0,0-6.89-24l-8.36-9.73-7.5-13.47a136.83,136.83,0,0,1-12.09-24A66.93,66.93,0,0,0,348,285.37c-1.57-1.56-2.58-2.39-2.58-2.39l-7,2.14S330.54,307.92,330.84,311Z"
     transform="translate(-43.1 -37.14)"
     fill="#ecb4b6"
     id="path299" />
  <path
     d="M357.62,580.63l2.68,2.69c4.64,4.67,13.92,14,16.3,16.12,3.21,2.91,10.56,3.37,16.68,2.14,3.14-.62,7-3.63,9.94-6.4a6.88,6.88,0,0,0,.11-9.95c-2.9-2.84-6.3-6-7.76-6.45-2.75-.92-10.56-6.42-14.23-11-1.91-2.39-5.37-4.66-8.24-6.29-2.64-1.49-4.77-2.43-4.77-2.43Z"
     transform="translate(-43.1 -37.14)"
     fill="#c17174"
     id="path301" />
  <path
     d="M361.4,580.63s.89.91,2.27,2.29c3.95,4,11.84,11.88,13.87,13.71,2.73,2.47,9,2.86,14.18,1.82,2.34-.47,5.13-2.48,7.49-4.56a6.89,6.89,0,0,0,.25-10.14c-2.26-2.17-4.68-4.32-5.79-4.69-2.34-.78-9-5.47-12.1-9.37a25.69,25.69,0,0,0-7-5.35c-2.24-1.27-4.05-2.07-4.05-2.07Z"
     transform="translate(-43.1 -37.14)"
     opacity="0.1"
     id="path303" />
  <path
     d="M236,435.24s2.1,2.37,4.65,5.15c3.21,3.51,7.15,7.69,8.51,8.62,2.45,1.69,9.95,14.39,9.95,14.39s8,13.16,18.52,13.77,10.56-11.63,9.79-12.39-1.83-7.66-3.36-12.71c-1.16-3.82-10.65-12.9-15.19-17.09-1.46-1.35-2.41-2.19-2.41-2.19Z"
     transform="translate(-43.1 -37.14)"
     fill="#c17174"
     id="path305" />
  <path
     d="M238.25,437s1.9,2.16,4.23,4.7c2.93,3.2,6.52,7,7.76,7.86,2.24,1.54,9.07,13.12,9.07,13.12s7.26,12,16.89,12.55,9.62-10.6,8.93-11.3-1.68-7-3.07-11.58c-1.06-3.48-9.71-11.76-13.85-15.58-1.33-1.23-2.2-2-2.2-2Z"
     transform="translate(-43.1 -37.14)"
     opacity="0.1"
     id="path307" />
  <path
     d="M236,435.24s2.1,2.37,4.65,5.15c13.44,2,19.69-.25,19.69-.25s6.27-2.76,7.65-2.91c.35,0,.6-.91.88-2.25-1.46-1.35-2.41-2.19-2.41-2.19Z"
     transform="translate(-43.1 -37.14)"
     opacity="0.1"
     id="path309" />
  <path
     d="M252.19,399.13S243.77,406,239,408.46,231.68,419,231.68,419s-7.19,17.45,7.34,19.89,21.28,0,21.28,0,6.27-2.75,7.65-2.9,1.37-13.32,6.42-17.3,16.68-13,16.68-13Z"
     transform="translate(-43.1 -37.14)"
     fill="#5e5a6b"
     id="path311" />
  <path
     d="M252.19,399.13S243.77,406,239,408.46,231.68,419,231.68,419s-7.19,17.45,7.34,19.89,21.28,0,21.28,0,6.27-2.75,7.65-2.9,1.37-13.32,6.42-17.3,16.68-13,16.68-13Z"
     transform="translate(-43.1 -37.14)"
     opacity="0.1"
     id="path313" />
  <path
     d="M330.83,378.16s6,8.17,4.14,10.13-6.42,4.1-6.42,4.1-2.76,14.54-7.2,20.66-13.15,12.86-13.15,12.86l6.11-34.13Z"
     transform="translate(-43.1 -37.14)"
     fill="#5e5a6b"
     id="path315" />
  <path
     d="M308.21,425.91a101,101,0,0,0,7.82-6.86,49,49,0,0,0,5.32-6c4.44-6.12,7.2-20.66,7.2-20.66s4.59-2.14,6.42-4.1c1.12-1.19-.65-4.66-2.21-7.21-1-1.66-1.92-2.92-1.92-2.92l-8.67,7.14-7.86,6.48L312,405Z"
     transform="translate(-43.1 -37.14)"
     opacity="0.1"
     id="path317" />
  <path
     d="M357.62,580.63l2.68,2.69c1.69,0,4.21.21,4.21.21s12.39-14.85,10.4-17.45a12.68,12.68,0,0,1-1.81-4.61c-2.64-1.49-4.77-2.43-4.77-2.43Z"
     transform="translate(-43.1 -37.14)"
     opacity="0.1"
     id="path319" />
  <path
     d="M263.05,423.92c0,2.6,20.81,34.43,20.81,34.43s8.11,13.77,9.95,15,7.8,10.86,7.8,10.86,7.5,17.29,8.73,19.13,3.36,11,3.36,11,4.29,12.7,6.28,14.38,3.06,7.81,3.06,7.81,6.27,9.18,7.34,10.71a65.8,65.8,0,0,1,3.37,6.88s3.37,5.51,3.37,7.66,7,5.81,7,5.81,5,6,7.95,7,5.67,8.11,6.12,7.65,5.67,0,5.67,0,12.39-14.84,10.4-17.44-2.45-8.73-2.45-8.73,5-11.47,2.3-12.08S361,525.22,361,525.22c-.15-13.77-12.7-25.4-12.7-25.4s-6.28-15-8.11-18.21a4.94,4.94,0,0,1,0-5.51s-3.52-2.75-4.13-4.13-3.52-11.78-3.52-11.78-3.52-6.28-3.68-9.19-7-11-7-11-2.78-13.63-5.84-16.08c-.6-.48-.5-2.27,0-4.87,1.41-6.85,5.9-19.23,9-27.34,1.77-4.64,3.08-7.89,3.08-7.89l-5.92,1.48-50.4,12.6s-2.73,7.33-5.13,14.24C264.74,417.58,263.05,422.77,263.05,423.92Z"
     transform="translate(-43.1 -37.14)"
     fill="#5e5a6b"
     id="path321" />
  <path
     d="M360.84,549.25s15.76-6.12,8,1.68-22.64,7.35-22.64,7.35Z"
     transform="translate(-43.1 -37.14)"
     opacity="0.1"
     id="path323" />
  <path
     d="M333.9,518s-8.87,4.9-7.19,9.64S333.9,518,333.9,518Z"
     transform="translate(-43.1 -37.14)"
     opacity="0.1"
     id="path325" />
  <path
     d="M325,480.08a9.28,9.28,0,0,1-8.73,4.74C309.88,484.67,325,480.08,325,480.08Z"
     transform="translate(-43.1 -37.14)"
     opacity="0.1"
     id="path327" />
  <path
     d="M241.78,412s3.37,10.41,0,11.17S241.78,412,241.78,412Z"
     transform="translate(-43.1 -37.14)"
     opacity="0.1"
     id="path329" />
  <path
     d="M330.84,311c.1,1,2,3.07,4.58,5.52,1.46-4.7,2.82-9,2-10.42-1.22-2.14,3.56-6.73,2.7-9.79-.66-2.34,5.1-8.27,7.84-10.92-1.57-1.56-2.58-2.39-2.58-2.39l-7,2.14S330.54,307.92,330.84,311Z"
     transform="translate(-43.1 -37.14)"
     opacity="0.1"
     id="path331" />
  <path
     d="M266.64,412.14c5.81-.32,19.36-4.52,19.36-4.52S301.71,407.1,312,405c5-1,8.64-2.43,8.64-4.32,0-2.53,2.07-5.92,4.42-9a71.7,71.7,0,0,1,5.14-5.83,9.29,9.29,0,0,0,2.13-3.45c.14-.41.31-.87.48-1.35-1-1.66-1.92-2.92-1.92-2.92l-8.67,7.14-50.4,12.6S269,405.23,266.64,412.14Z"
     transform="translate(-43.1 -37.14)"
     opacity="0.1"
     id="path333" />
  <path
     d="M249.89,402.19s11.32,6.73,14.69,7.95S286,405.78,286,405.78s34.59-1.14,34.59-7c0-4.49,6.56-11.71,9.56-14.77a9.25,9.25,0,0,0,2.13-3.46c1.05-3,3.17-8.57,5.14-10.54,2.76-2.75-1.53-17.44-1.53-17.44s-.92-10.41-2.14-13.47,0-3.51-1-6.12c-1.18-2.93-2-2.76-.51-9.49s5.2-15.3,4-17.45,3.56-6.73,2.7-9.79,9.23-12.24,9.23-12.24S346.91,274,346,272.72s-4.28-8.26-4.28-9.79-2.15-1.84-3.37-3.67S323,306.7,323,306.7l-20.59,4.64-1.14.25s-11.71.55-19.31-3.67c0,0-13.13-2.14-17.42-23.87a50.31,50.31,0,0,0-9.52,3.44c-3.19,1.55-6.39,3.66-8.23,6.35a41.66,41.66,0,0,1-11,10.74,89.13,89.13,0,0,0-3.37,10.07c-.91,4-1.83,10.41-4.59,13.78s-4,13.46-4,13.46L251.42,367s-.61,6.43-2.14,6.12S249.89,402.19,249.89,402.19Z"
     transform="translate(-43.1 -37.14)"
     fill="#464353"
     id="path335" />
  <path
     d="M255.06,288.71l14.72,30.69s6.12,4,8.27,1.83,10.25-2.14,10.25-2.14l1.07,2.14,15.51-3.66-2.43-5-1.14.26s-11.71.55-19.31-3.67c0,0-13.13-2.15-17.42-23.88A50.31,50.31,0,0,0,255.06,288.71Z"
     transform="translate(-43.1 -37.14)"
     opacity="0.1"
     id="path337" />
  <path
     d="M255.06,287.49l14.72,30.68s6.12,4,8.27,1.84,10.25-2.14,10.25-2.14l1.07,2.14,15.51-3.67-2.43-5-1.14.25s-11.71.55-19.31-3.67c0,0-13.13-2.14-17.42-23.87A50.31,50.31,0,0,0,255.06,287.49Z"
     transform="translate(-43.1 -37.14)"
     fill="#464353"
     id="path339" />
  <path
     d="M261.52,376.78S294,387,296.41,388.29,261.67,380.3,261.52,376.78Z"
     transform="translate(-43.1 -37.14)"
     opacity="0.1"
     id="path341" />
  <path
     d="M282,392.39s-8.54,4.75-11.6,3.06S282,392.39,282,392.39Z"
     transform="translate(-43.1 -37.14)"
     opacity="0.1"
     id="path343" />
  <path
     d="M308.81,335.63s8.22,43.91-3.93,56.76Z"
     transform="translate(-43.1 -37.14)"
     opacity="0.1"
     id="path345" />
  <path
     d="m 322.32,269.52 c 3.14467,-3.38894 -0.75021,-8.51032 -3.70613,-12.06509 -4.45949,-5.19258 -1.31443,-1.03765 -4.45949,-5.19258 -1.58,-1.62 -3.30625,-2.45929 -5.47625,-3.11929 -2.17,-0.66 -3.39066,-2.67715 -6.54624,-3.50322 -6.54052,-1.49815 -5.70078,-3.19721 -12.18666,-2.26022 -2.77,0.46 -2.9764,0.27895 -5.6864,1.04895 0.40095,0.53958 -4.51265,0.35007 -4.96067,0.85126 0,0 -0.27862,-2.94824 -4.82886,5.35595 0.51,1.91 -4.13788,6.21954 -4.58788,8.13954 -0.22,0.94 -0.71,1.81 -0.9,2.76 -0.5,2.48 -0.57057,10.68074 -0.57057,10.68074 0,0 -0.51579,4.16498 0.22068,6.80675 0.31356,1.12477 2.74228,1.85104 3.69526,2.72341 l 2.04557,1.87254 c 0.19564,0.17909 -3.2052,6.8219 -2.94636,6.87977 2.68571,-2.59654 5.67476,0.009 6.544,0.53149 2.17,1.04 3.95,2.75 6.13,3.74 5.11,2.33 11,0.26 16.53,-0.81 1.89349,-0.27278 3.76259,-0.69408 5.59,-1.26 1.72266,-0.69896 3.36539,-1.58067 4.9,-2.63 1.55665,-0.87602 2.96974,-1.98558 4.19,-3.29 1.34341,-1.45899 1.86544,-3.49455 1.39,-5.42 -0.45,-1.61 -1.89,-3.06 -1.6,-4.85 0.58,-3.1 5.21,-4.95 7.22,-6.99 z"
     transform="translate(-43.1,-37.14)"
     opacity="0.1"
     id="path347"
     sodipodi:nodetypes="cccsccccccccssscccccccccc" />
  <path
     d="m 322.32,268.3 c 0.24707,-5.86688 -8.29464,-13.87572 -9.52634,-15.30329 -2.17,-0.66 -5.36553,-3.09507 -6.97553,-4.54507 -2.58137,-2.3578 -10.66213,-2.62466 -13.75725,-4.25036 l -12.32217,3.2584 c 7.30762,2.81812 -7.68659,-2.59496 -6.61466,0.78855 0.51,1.9 1.79525,0.46753 1.34525,2.38753 -2.24301,0.20063 -5.85772,8.47494 -5.48788,9.62955 -0.5,2.48 -2.739,6.23748 -1.669,8.52748 1.18702,2.52136 0.49465,5.28505 0.43226,8.07116 -0.075,0.61807 0.64791,1.57421 0.88681,2.14917 0.30847,0.45395 1.04305,1.53789 1.529,1.79301 l 4.6,2.89 c 0.2156,0.15689 0.78233,-0.77425 1.04193,-0.71334 0.9,0.13 0.18436,3.7898 0.73436,3.0898 1.54,-1.84 -0.68678,2.76742 1.48322,3.79742 2.17,1.03 3.95,2.75 6.13,3.74 5.11,2.33 11,0.26 16.53,-0.8 1.89284,-0.28096 3.76157,-0.70552 5.59,-1.27 1.72223,-0.69579 3.36494,-1.57414 4.9,-2.62 1.55698,-0.87959 2.97004,-1.9925 4.19,-3.3 1.34333,-1.455 2.94981,-5.07328 2.47423,-6.99562 -0.45,-1.62 2.6801,-0.67313 2.9701,-2.45313 0.53,-3.18 -0.49433,-5.84125 1.51567,-7.87125 z"
     transform="translate(-43.1,-37.14)"
     fill="#464353"
     id="path349"
     sodipodi:nodetypes="cccccccccccccccsccccccccc" />
  <path
     d="M217.91,373.57c-.16,4.13,3.36,9.64,3.36,9.64,1.07,2.6,14.23,14.69,14.23,14.69l10.41,7s13.93,8.57,17.22,10.1c1.65.77,3.42,4,4.79,7.16s2.32,6,2.32,6A13.69,13.69,0,0,0,281.87,416c.39-3.94.65-7.48.31-7.55-.77-.15-9.34-6.58-9.34-6.58s-9.94-6.43-13.16-12.85-15.76-16.22-15.76-16.22l.2-.37.72-1.32,1.53-5.05-24-10.71s-.59,1.95-1.35,4.62C219.72,364.47,218,371,217.91,373.57Z"
     transform="translate(-43.1 -37.14)"
     fill="#ecb4b6"
     id="path351" />
  <path
     d="M221,360a133.11,133.11,0,0,0,14.51,12.37c1.49.87,6.71.33,8.62.09l.72-1.32,1.53-5.05-24-10.71S221.75,357.31,221,360Z"
     transform="translate(-43.1 -37.14)"
     opacity="0.1"
     id="path353" />
  <path
     d="M244.84,341.43s12.24,7.35,11.63,10.56-5.8,14.31-5.8,14.31l-5.83,4.82s-7.5,1.07-9.34,0-14.84-11.78-15.3-13.46,0-7.35,0-8.57,3.67-7.2,3.67-7.2l5.36-9.48Z"
     transform="translate(-43.1 -37.14)"
     fill="#464353"
     id="path355" />
  <polygon
     points="242.9 370.45 246.5 380.12 240.43 385.86 240.15 387.59 226.68 395.34 222.4 384.53 242.9 370.45"
     opacity="0.1"
     id="polygon357" />
  <polygon
     points="242.9 369.84 246.5 379.5 240.43 385.25 240.15 386.98 226.68 394.73 222.4 383.92 242.9 369.84"
     fill="#5e5a6b"
     id="polygon359" />
  <circle
     cx="21.63"
     cy="133.13"
     r="21.63"
     fill="#6c63ff"
     opacity="0.1"
     id="circle369" />
  <circle
     cx="608.74"
     cy="41.99"
     r="21.63"
     fill="#6c63ff"
     opacity="0.1"
     id="circle371" />
  <circle
     cx="951.89"
     cy="127.44"
     r="21.63"
     fill="#6c63ff"
     opacity="0.1"
     id="circle373" />
  <circle
     cx="64.88"
     cy="252.46"
     r="36.25"
     fill="#6c63ff"
     opacity="0.1"
     id="circle375" />
  <circle
     cx="507.64"
     cy="789.47"
     r="36.25"
     fill="#6c63ff"
     opacity="0.1"
     id="circle377" />
  <circle
     cx="990.55"
     cy="768.57"
     r="36.25"
     fill="#6c63ff"
     opacity="0.1"
     id="circle379" />
  <path
     style="fill:#464353;stroke:#000000;stroke-width:0.1;stroke-linecap:butt;stroke-linejoin:miter;stroke-opacity:1;fill-opacity:1;stroke-miterlimit:4;stroke-dasharray:none"
     d="m 218.66357,203.50226 c -1.7905,-4.55106 2.07797,-10.45608 5.98738,-13.39453 5.40323,-4.06125 20.0834,-2.80263 20.0834,-2.80263 0,0 3.82778,14.09517 -0.50644,13.24232 -9.154,-1.80125 -11.1168,9.07659 -11.1168,9.07659 0,0 -12.53267,-1.25455 -14.44754,-6.12175 z"
     id="path1215"
     sodipodi:nodetypes="aacsca" />
  <path
     style="fill:#afaeb7;fill-opacity:1;stroke:none;stroke-width:0.1;stroke-linecap:butt;stroke-linejoin:miter;stroke-miterlimit:4;stroke-dasharray:none;stroke-opacity:1"
     d="m 244.73435,187.3051 c -11.36435,2.14416 -2.83342,1.61049 -6.03252,6.16085 0.85034,-1.23995 2.45886,-2.47989 2.02112,-3.71984 l 4.0114,-2.44101"
     id="path1217"
     sodipodi:nodetypes="cccc" />
  <path
     style="fill:#afaeb7;fill-opacity:1;stroke:none;stroke-width:0.1;stroke-linecap:butt;stroke-linejoin:miter;stroke-miterlimit:4;stroke-dasharray:none;stroke-opacity:1"
     d="m 235.1767,187.2464 c -5.1513,1.61095 -2.02668,1.54126 -6.03252,6.16085 0.99758,-1.06581 4.47807,-1.03192 3.98897,-2.8971 6.49548,1.0975 1.06045,-2.31891 2.04355,-3.26375"
     id="path1217-3"
     sodipodi:nodetypes="cccc" />
  <path
     style="fill:#afaeb7;fill-opacity:1;stroke:none;stroke-width:1px;stroke-linecap:butt;stroke-linejoin:miter;stroke-opacity:1"
     d="m 233.11111,209.62401 c 0,0 -2.90947,-6.61463 -5.28302,-10.44404 -0.78556,-1.2674 1.29465,-7.04064 -0.47887,-3.4391 -0.5107,1.0371 -3.34651,1.44065 -2.28172,1.89079 1.83683,0.77651 4.07668,-4.22441 4.07668,-4.22441 0,0 -0.81546,3.17553 -0.61401,4.76392 0.51733,4.07899 4.58094,11.45284 4.58094,11.45284"
     id="path1234"
     sodipodi:nodetypes="cssscsc" />
  <path
     style="fill:#afaeb7;fill-opacity:1;stroke:none;stroke-width:1px;stroke-linecap:butt;stroke-linejoin:miter;stroke-opacity:1"
     d="m 233.11111,209.62401 c 0,0 -0.0459,-8.31283 0.75111,-12.74712 0.26378,-1.46759 5.67176,-4.36781 1.94438,-2.87682 -1.07334,0.42935 -3.45132,-1.16749 -2.96088,-0.12065 0.84605,1.80586 5.85611,-0.41347 5.85611,-0.41347 0,0 -2.73024,1.81514 -3.64294,3.13064 -2.3438,3.37823 -1.94778,13.02742 -1.94778,13.02742"
     id="path1234-6"
     sodipodi:nodetypes="cssscsc" />
  <path
     style="fill:none;stroke:#afaeb7;stroke-width:1px;stroke-linecap:butt;stroke-linejoin:miter;stroke-opacity:1"
     d="M 255.14227,253.69674 233.6041,211.83856"
     id="path1253" />
  <path
     style="fill:none;stroke:#afaeb7;stroke-width:1px;stroke-linecap:butt;stroke-linejoin:miter;stroke-opacity:1"
     d="m 233.6041,211.83856 14.79365,25.27506 8.07551,16.29334"
     id="path1255" />
  <path
     style="fill:none;stroke:#afaeb7;stroke-width:1px;stroke-linecap:butt;stroke-linejoin:miter;stroke-opacity:1"
     d="M 266.02991,250.55419 C 251.02858,212.70341 249.12315,218.81548 244.46639,215.69133"
     id="path1257"
     sodipodi:nodetypes="cc" />
  <path
     style="fill:none;stroke:#afaeb7;stroke-width:1px;stroke-linecap:butt;stroke-linejoin:miter;stroke-opacity:1"
     d="M 272.80125,234.02127 256.9288,218.25324"
     id="path1259" />
  <path
     style="fill:none;stroke:#afaeb7;stroke-width:1px;stroke-linecap:butt;stroke-linejoin:miter;stroke-opacity:1"
     d="m 244.63387,254.95368 c -5.64653,-8.82395 -12.93931,-26.74981 -12.76539,-42.24642"
     id="path1261"
     sodipodi:nodetypes="cc" />
  <path
     style="fill:none;stroke:#000000;stroke-width:1.7;stroke-linecap:butt;stroke-linejoin:miter;stroke-opacity:1;stroke-miterlimit:4;stroke-dasharray:none"
     d="m 231.86848,212.70726 -1.84443,-1.59904 6.17411,-2.96841 0.44055,2.17987 z"
     id="path1213"
     sodipodi:nodetypes="ccccc" />
  <path
     d="M 659.30804,122.27288 641.13362,266.18972 916.6654,542.21888 935.9279,400.59557 c 0.74373,-5.47668 2.49692,-8.56916 -1.42609,-12.47309 L 665.25977,120.27891 c -2.04953,-2.0366 -5.55112,-0.86347 -5.95173,1.99397 z"
     fill="#6c63ff"
     id="path213-3"
     sodipodi:nodetypes="ccccccc"
     style="fill:#060065;fill-opacity:1;stroke-width:0.941888" />
  <path
     style="fill:#01000f;stroke:none;stroke-width:1px;stroke-linecap:butt;stroke-linejoin:miter;stroke-opacity:1;fill-opacity:0.70465207"
     d="m 933.59785,387.22321 -270.12359,-267.6791 -6.77163,23.36006 277.34282,271.5317"
     id="path1059"
     sodipodi:nodetypes="cccc" />
  <path
     style="fill:none;stroke:#000000;stroke-width:1px;stroke-linecap:butt;stroke-linejoin:miter;stroke-opacity:1"
     d="m 656.70263,142.90417 10e-6,1e-5"
     id="path1061" />
  <path
     id="path1065"
     style="fill:#cf2000;fill-opacity:0.70465201;stroke:none;stroke-width:2.51339;stroke-dasharray:7.54016, 2.51338999999999979"
     d="m 675.69838,142.28221 c 0,3.33034 -2.68568,5.16934 -5.73869,4.22554 -3.05301,-0.94381 -5.52795,-4.40869 -5.52795,-7.73902 0,-3.33033 2.47495,-5.26499 5.52795,-4.32119 3.05301,0.9438 5.73869,4.50434 5.73869,7.83467 z"
     sodipodi:nodetypes="sssss" />
  <path
     id="path1065-7"
     style="fill:#fbff27;fill-opacity:0.70465201;stroke:none;stroke-width:2.51339;stroke-dasharray:7.54016, 2.51338999999999979"
     d="m 688.9219,155.50134 c 0,3.33035 -2.68568,5.16935 -5.73869,4.22555 -3.05301,-0.94381 -5.52795,-4.4087 -5.52795,-7.73903 0,-3.33033 2.47495,-5.26499 5.52795,-4.32119 3.05301,0.9438 5.73869,4.50434 5.73869,7.83467 z"
     sodipodi:nodetypes="sssss" />
  <path
     id="path1065-7-5"
     style="fill:#2edb00;fill-opacity:0.70465201;stroke:none;stroke-width:2.51339;stroke-dasharray:7.54016, 2.51338999999999979"
     d="m 701.80669,168.16637 c 0,3.33035 -2.68568,5.16935 -5.73869,4.22555 -3.05301,-0.94381 -5.52795,-4.4087 -5.52795,-7.73903 0,-3.33033 2.47495,-5.26499 5.52795,-4.32119 3.05301,0.9438 5.73869,4.50434 5.73869,7.83467 z"
     sodipodi:nodetypes="sssss" />
</svg>
